<svg xmlns="http://www.w3.org/2000/svg" xmlns:xlink="http://www.w3.org/1999/xlink" viewBox="0 0 550 500" id="developer-working-on-computer"><defs><linearGradient id="a" x1="2258.79" x2="2261.31" y1="282.94" y2="287.6" gradientTransform="matrix(-1 0 0 1 2528.92 0)" gradientUnits="userSpaceOnUse"><stop offset="0" stop-color="#fff"></stop><stop offset=".1" stop-color="#fafafa"></stop><stop offset=".22" stop-color="#eaeaea"></stop><stop offset=".36" stop-color="#d1d1d1"></stop><stop offset=".51" stop-color="#aeaeae"></stop><stop offset=".66" stop-color="#818181"></stop><stop offset=".82" stop-color="#4a4a4a"></stop><stop offset=".98" stop-color="#0a0a0a"></stop><stop offset="1"></stop></linearGradient><linearGradient id="c" x1="2334.54" x2="2345.55" y1="273.91" y2="273.91" gradientTransform="matrix(-1 0 0 1 2528.92 0)" gradientUnits="userSpaceOnUse"><stop offset="0" stop-color="#fff"></stop><stop offset="1"></stop></linearGradient><linearGradient id="b" x1="2276.26" x2="2281.19" y1="262.07" y2="268.8" gradientTransform="matrix(-1 0 0 1 2528.92 0)" gradientUnits="userSpaceOnUse"><stop offset=".24" stop-color="#fff"></stop><stop offset=".32" stop-color="#fafafa"></stop><stop offset=".41" stop-color="#eaeaea"></stop><stop offset=".52" stop-color="#d1d1d1"></stop><stop offset=".63" stop-color="#aeaeae"></stop><stop offset=".74" stop-color="#818181"></stop><stop offset=".86" stop-color="#4a4a4a"></stop><stop offset=".98" stop-color="#0a0a0a"></stop><stop offset="1"></stop></linearGradient><linearGradient id="L" x1="2201.41" x2="2218.11" y1="280.3" y2="294.03" xlink:href="#a"></linearGradient><linearGradient id="N" x1="2313.54" x2="2320.51" y1="300.16" y2="309.66" xlink:href="#b"></linearGradient><linearGradient id="P" x1="-824.94" x2="-824.94" y1="-281.03" y2="-286.4" gradientTransform="matrix(1 -.5 0 1 1064.32 173.79)" gradientUnits="userSpaceOnUse"><stop offset=".32"></stop><stop offset="1" stop-color="#fff"></stop></linearGradient><linearGradient id="B" x1="2267.42" x2="2269.94" y1="295.86" y2="300.53" xlink:href="#a"></linearGradient><linearGradient id="R" x1="2219.84" x2="2225.63" y1="237.78" y2="248.5" xlink:href="#a"></linearGradient><linearGradient id="T" x1="2305.54" x2="2307.6" y1="293.68" y2="297.58" xlink:href="#a"></linearGradient><linearGradient id="V" x1="2286.27" x2="2314.22" y1="291.53" y2="291.53" gradientTransform="matrix(-1 0 0 1 2528.92 0)" gradientUnits="userSpaceOnUse"><stop offset="0" stop-color="gray"></stop><stop offset="1" stop-color="#fff"></stop></linearGradient><linearGradient id="X" x1="2179.44" x2="2194.83" y1="232.73" y2="232.73" gradientTransform="matrix(-1 0 0 1 2528.92 0)" gradientUnits="userSpaceOnUse"><stop offset="0"></stop><stop offset="1" stop-color="#fff"></stop></linearGradient><linearGradient id="D" x1="2347.43" x2="2355.31" y1="287.86" y2="302.45" xlink:href="#a"></linearGradient><linearGradient id="F" x1="2340.04" x2="2340.04" y1="293.72" y2="274.2" gradientTransform="matrix(-1 0 0 1 2528.92 0)" gradientUnits="userSpaceOnUse"><stop offset="0" stop-color="#fff"></stop><stop offset=".68"></stop></linearGradient><linearGradient id="H" x1="2333.65" x2="2346.44" y1="273.97" y2="273.97" xlink:href="#c"></linearGradient><linearGradient id="d" x1="2396.17" x2="2340.52" y1="244.23" y2="215.88" gradientTransform="matrix(-1 0 0 1 2528.92 0)" gradientUnits="userSpaceOnUse"><stop offset="0" stop-color="#64e386"></stop><stop offset="1" stop-color="#9aedb2"></stop></linearGradient><linearGradient id="Y" x1="2344.51" x2="2377.89" y1="247.06" y2="229.32" xlink:href="#d"></linearGradient><linearGradient id="e" x1="2433.2" x2="2380.94" y1="199.3" y2="172.67" gradientTransform="matrix(-1 0 0 1 2528.92 0)" gradientUnits="userSpaceOnUse"><stop offset="0" stop-color="#f76060"></stop><stop offset="1" stop-color="#ff8d8c"></stop></linearGradient><linearGradient id="Z" x1="2384.69" x2="2416.04" y1="201.95" y2="185.29" gradientTransform="matrix(-.62 -.79 -.79 .62 1754.52 1969.26)" xlink:href="#e"></linearGradient><linearGradient id="f" x1="2162.9" x2="2101.09" y1="197.64" y2="129.32" gradientTransform="matrix(-1 0 0 1 2528.92 0)" gradientUnits="userSpaceOnUse"><stop offset="0" stop-color="#f58d4c"></stop><stop offset="1" stop-color="#ffb585"></stop></linearGradient><linearGradient id="aa" x1="2085.92" x2="2123.55" y1="163.48" y2="143.49" xlink:href="#f"></linearGradient><linearGradient id="ab" x1="2250.77" x2="2185.05" y1="90.11" y2="56.62" gradientTransform="matrix(-1 0 0 1 2528.92 0)" gradientUnits="userSpaceOnUse"><stop offset="0" stop-color="#41d69f"></stop><stop offset="1" stop-color="#a3ffdf"></stop></linearGradient><linearGradient id="ac" x1="2189.76" x2="2229.19" y1="93.45" y2="72.5" gradientTransform="scale(-1 1) rotate(-51.9 952.79 2665.634)" gradientUnits="userSpaceOnUse"><stop offset="0" stop-color="#41d9a1"></stop><stop offset="1" stop-color="#81fcd1"></stop></linearGradient><linearGradient id="g" x1="2434.62" x2="2382.76" y1="147.5" y2="90.16" gradientTransform="matrix(-1 0 0 1 2528.92 0)" gradientUnits="userSpaceOnUse"><stop offset="0" stop-color="#5b9be0"></stop><stop offset="1" stop-color="#9ecbff"></stop></linearGradient><linearGradient id="ad" x1="2375.64" x2="2402.18" y1="118.97" y2="99.33" xlink:href="#g"></linearGradient><linearGradient id="ae" x1="231.39" x2="305.9" y1="-612.1" y2="-612.1" gradientTransform="matrix(1 -.5 0 1 60.23 864.25)" gradientUnits="userSpaceOnUse"><stop offset="0" stop-color="#83a8eb"></stop><stop offset=".48" stop-color="#a3c6f5"></stop><stop offset="1" stop-color="#a3c6f5"></stop></linearGradient><linearGradient id="h" x1="235.18" x2="260.68" y1="-604.44" y2="-604.44" gradientTransform="matrix(1 -.5 0 1 60.23 864.25)" gradientUnits="userSpaceOnUse"><stop offset="0" stop-color="#78b0ee"></stop><stop offset="1" stop-color="#9ecbff"></stop></linearGradient><linearGradient id="af" x1="235.18" x2="263.53" y1="-582.88" y2="-582.88" xlink:href="#h"></linearGradient><linearGradient id="ag" x1="235.18" x2="254.95" y1="-600.91" y2="-600.91" xlink:href="#h"></linearGradient><linearGradient id="ah" x1="235.18" x2="255.88" y1="-586.56" y2="-586.56" xlink:href="#h"></linearGradient><linearGradient id="ai" x1="265.69" x2="277.96" y1="-582.88" y2="-582.88" xlink:href="#h"></linearGradient><linearGradient id="aj" x1="281.05" x2="290.52" y1="-600.91" y2="-600.91" xlink:href="#h"></linearGradient><linearGradient id="ak" x1="257.06" x2="278.93" y1="-600.91" y2="-600.91" xlink:href="#h"></linearGradient><linearGradient id="al" x1="235.18" x2="249.44" y1="-597.37" y2="-597.37" xlink:href="#h"></linearGradient><linearGradient id="am" x1="235.18" x2="251.98" y1="-579.06" y2="-579.06" xlink:href="#h"></linearGradient><linearGradient id="an" x1="235.18" x2="264.46" y1="-590.17" y2="-590.17" xlink:href="#h"></linearGradient><linearGradient id="ao" x1="266.62" x2="284.81" y1="-590.17" y2="-590.17" xlink:href="#h"></linearGradient><linearGradient id="ap" x1="235.18" x2="288.72" y1="-593.83" y2="-593.83" xlink:href="#h"></linearGradient><linearGradient id="aq" x1="235.18" x2="263.53" y1="-575.23" y2="-575.23" xlink:href="#h"></linearGradient><linearGradient id="ar" x1="235.18" x2="269.11" y1="-571.55" y2="-571.55" xlink:href="#h"></linearGradient><linearGradient id="as" x1="265.69" x2="277.96" y1="-575.23" y2="-575.23" xlink:href="#h"></linearGradient><linearGradient id="at" x1="235.18" x2="245.53" y1="-560.74" y2="-560.74" xlink:href="#h"></linearGradient><linearGradient id="au" x1="235.18" x2="259.59" y1="-567.94" y2="-567.94" xlink:href="#h"></linearGradient><linearGradient id="av" x1="261.76" x2="284.81" y1="-567.94" y2="-567.94" xlink:href="#h"></linearGradient><linearGradient id="aw" x1="235.18" x2="260.68" y1="-564.28" y2="-564.28" xlink:href="#h"></linearGradient><linearGradient id="ax" x1="262.97" x2="274.01" y1="-564.28" y2="-564.28" xlink:href="#h"></linearGradient><linearGradient id="ay" x1="2299.06" x2="2373.03" y1="1110.1" y2="1110.1" gradientTransform="matrix(-1 -.5 0 1 2528.92 426.42)" gradientUnits="userSpaceOnUse"><stop offset="0" stop-color="#a0bdde"></stop><stop offset="1" stop-color="#b7cae0"></stop></linearGradient><linearGradient id="i" x1="2306.02" x2="2379.99" y1="1113.52" y2="1113.52" gradientTransform="matrix(-1 -.5 0 1 2528.92 426.42)" gradientUnits="userSpaceOnUse"><stop offset="0" stop-color="#b9d0e9"></stop><stop offset="1" stop-color="#cce0f0"></stop></linearGradient><linearGradient id="az" x1="2131.57" x2="2205.54" y1="943.57" y2="943.57" gradientTransform="matrix(-1 -.5 0 1 2528.92 426.42)" gradientUnits="userSpaceOnUse"><stop offset="0" stop-color="#a5bad1"></stop><stop offset="1" stop-color="#c2d2e5"></stop></linearGradient><linearGradient id="aA" x1="2138.53" x2="2212.5" y1="946.99" y2="946.99" xlink:href="#i"></linearGradient><linearGradient id="j" x1="2180.9" x2="2222.18" y1="325.9" y2="325.9" gradientTransform="matrix(-1 0 0 1 2528.92 0)" gradientUnits="userSpaceOnUse"><stop offset="0" stop-color="#515c6b"></stop><stop offset="1" stop-color="#283648"></stop></linearGradient><linearGradient id="aB" x1="2184.52" x2="2221.74" y1="312.44" y2="312.44" xlink:href="#j"></linearGradient><linearGradient id="aC" x1="2217.55" x2="2143.8" y1="363.74" y2="326.86" gradientTransform="matrix(-1 0 0 1 2528.92 0)" gradientUnits="userSpaceOnUse"><stop offset="0" stop-color="#3e4e74"></stop><stop offset="1" stop-color="#50648f"></stop></linearGradient><linearGradient id="aD" x1="-10.73" x2="42.56" y1="-501.59" y2="-501.59" gradientTransform="matrix(1 -.5 1 .5 833.46 596.48)" gradientUnits="userSpaceOnUse"><stop offset="0" stop-color="#536894"></stop><stop offset="1" stop-color="#6983b8"></stop></linearGradient><linearGradient id="k" x1="2158.02" x2="2256.52" y1="331.21" y2="331.21" gradientTransform="matrix(-1 0 0 1 2528.92 0)" gradientUnits="userSpaceOnUse"><stop offset="0" stop-color="#6a7381"></stop><stop offset="1" stop-color="#39495e"></stop></linearGradient><linearGradient id="aE" x1="2158.02" x2="2256.52" y1="331.22" y2="331.22" xlink:href="#k"></linearGradient><linearGradient id="aF" x1="2153.82" x2="2361.31" y1="333.39" y2="229.62" gradientTransform="matrix(-1 0 0 1 2528.92 0)" gradientUnits="userSpaceOnUse"><stop offset="0" stop-color="#bddfff"></stop><stop offset="1" stop-color="#9cbcd9"></stop></linearGradient><linearGradient id="aG" x1="480.93" x2="480.93" y1="-382.4" y2="-482.2" gradientTransform="matrix(1 -.5 1 .5 223.21 734.42)" gradientUnits="userSpaceOnUse"><stop offset="0" stop-color="#f2f9ff"></stop><stop offset="1" stop-color="#daeaf7"></stop></linearGradient><linearGradient id="l" x1="2258.79" x2="2261.31" y1="282.94" y2="287.6" gradientTransform="matrix(-1 0 0 1 2528.92 0)" gradientUnits="userSpaceOnUse"><stop offset="0" stop-color="#d3daed"></stop><stop offset=".35" stop-color="#d8dff0"></stop><stop offset=".78" stop-color="#e7eef9"></stop><stop offset="1" stop-color="#f2f9ff"></stop></linearGradient><linearGradient id="aJ" x1="2267.42" x2="2269.94" y1="295.86" y2="300.53" xlink:href="#l"></linearGradient><linearGradient id="aL" x1="2347.43" x2="2355.31" y1="287.86" y2="302.45" xlink:href="#l"></linearGradient><linearGradient id="aN" x1="2340.04" x2="2340.04" y1="293.72" y2="274.2" gradientTransform="matrix(-1 0 0 1 2528.92 0)" gradientUnits="userSpaceOnUse"><stop offset="0" stop-color="#f3718a"></stop><stop offset=".68" stop-color="#f3718a"></stop></linearGradient><linearGradient id="aP" x1="2333.65" x2="2346.44" y1="273.97" y2="273.97" gradientTransform="matrix(-1 0 0 1 2528.92 0)" gradientUnits="userSpaceOnUse"><stop offset="0" stop-color="#f3718a"></stop><stop offset="1" stop-color="#f3718a"></stop></linearGradient><linearGradient id="aR" x1="2334.54" x2="2345.55" y1="273.91" y2="273.91" gradientTransform="matrix(-1 0 0 1 2528.92 0)" gradientUnits="userSpaceOnUse"><stop offset="0" stop-color="#b21433"></stop><stop offset="1" stop-color="#b21433"></stop></linearGradient><linearGradient id="aS" x1="2335.42" x2="2335.42" y1="276.07" y2="256.8" xlink:href="#f"></linearGradient><linearGradient id="aT" x1="2335.06" x2="2335.06" y1="275.8" y2="256.8" xlink:href="#f"></linearGradient><linearGradient id="aU" x1="2341.52" x2="2341.52" y1="276.5" y2="256.99" xlink:href="#f"></linearGradient><linearGradient id="aV" x1="2341.87" x2="2341.87" y1="276.5" y2="256.99" xlink:href="#f"></linearGradient><linearGradient id="m" x1="2339.63" x2="2339.63" y1="276.5" y2="251.91" gradientTransform="matrix(-1 0 0 1 2528.92 0)" gradientUnits="userSpaceOnUse"><stop offset="0" stop-color="#37ad9c"></stop><stop offset="1" stop-color="#61b7ac"></stop></linearGradient><linearGradient id="aW" x1="2339.98" x2="2339.98" y1="276.5" y2="251.91" xlink:href="#m"></linearGradient><linearGradient id="n" x1="2346.86" x2="2346.86" y1="275.9" y2="255.49" gradientTransform="matrix(-1 0 0 1 2528.92 0)" gradientUnits="userSpaceOnUse"><stop offset="0" stop-color="#6457d9"></stop><stop offset="1" stop-color="#958be3"></stop></linearGradient><linearGradient id="aX" x1="2347.28" x2="2347.28" y1="275.48" y2="255.49" xlink:href="#n"></linearGradient><linearGradient id="aY" x1="2188.72" x2="2269.31" y1="269.61" y2="269.61" gradientTransform="matrix(-1 0 0 1 2528.92 0)" gradientUnits="userSpaceOnUse"><stop offset=".68" stop-color="#50648f"></stop><stop offset=".73" stop-color="#323f61"></stop></linearGradient><linearGradient id="o" x1="2276.26" x2="2281.19" y1="262.07" y2="268.8" gradientTransform="matrix(-1 0 0 1 2528.92 0)" gradientUnits="userSpaceOnUse"><stop offset=".24" stop-color="#daeaf7"></stop><stop offset=".55" stop-color="#dfedf9"></stop><stop offset=".93" stop-color="#eef7fe"></stop><stop offset="1" stop-color="#f2f9ff"></stop></linearGradient><linearGradient id="bb" x1="2201.41" x2="2218.11" y1="280.3" y2="294.03" xlink:href="#l"></linearGradient><linearGradient id="bd" x1="2313.54" x2="2320.51" y1="300.16" y2="309.66" xlink:href="#o"></linearGradient><linearGradient id="be" x1="2292.18" x2="2312.88" y1="286.53" y2="298.99" gradientTransform="matrix(-1 0 0 1 2528.92 0)" gradientUnits="userSpaceOnUse"><stop offset="0" stop-color="#749af7"></stop><stop offset=".8" stop-color="#7bb0f5"></stop></linearGradient><linearGradient id="bf" x1="2312.49" x2="2314.8" y1="297.89" y2="303.49" gradientTransform="matrix(-1 0 0 1 2528.92 0)" gradientUnits="userSpaceOnUse"><stop offset="0" stop-color="#7bb0f5"></stop><stop offset="1" stop-color="#4c6aba"></stop></linearGradient><linearGradient id="bg" x1="-827.28" x2="-821.88" y1="-277.32" y2="-291.03" gradientTransform="matrix(1 -.5 0 1 1064.32 173.79)" gradientUnits="userSpaceOnUse"><stop offset=".2" stop-color="#7bb0f5"></stop><stop offset="1" stop-color="#4c6aba"></stop></linearGradient><linearGradient id="bi" x1="-824.94" x2="-824.94" y1="-281.03" y2="-286.4" gradientTransform="matrix(1 -.5 0 1 1064.32 173.79)" gradientUnits="userSpaceOnUse"><stop offset=".32" stop-color="#c4c4c4"></stop><stop offset="1" stop-color="#c4c4c4"></stop></linearGradient><linearGradient id="bj" x1="-231.95" x2="-229.85" y1="-828.53" y2="-833.86" gradientTransform="matrix(.94 -.81 .34 .77 735.58 758.45)" xlink:href="#d"></linearGradient><linearGradient id="p" x1="2256.38" x2="2284.94" y1="246" y2="246" gradientTransform="matrix(-1 0 0 1 2528.92 0)" gradientUnits="userSpaceOnUse"><stop offset="0" stop-color="#50648f"></stop><stop offset="1" stop-color="#323f61"></stop></linearGradient><linearGradient id="bk" x1="2270.26" x2="2270.26" y1="267.14" y2="216.42" xlink:href="#p"></linearGradient><linearGradient id="bl" x1="2223.28" x2="2327.31" y1="211.07" y2="211.07" xlink:href="#p"></linearGradient><linearGradient id="r" x1="2223.28" x2="2324.71" y1="211.23" y2="211.23" gradientTransform="matrix(-1 0 0 1 2528.92 0)" gradientUnits="userSpaceOnUse"><stop offset="0" stop-color="#718ec7"></stop><stop offset="1" stop-color="#5a70a0"></stop></linearGradient><linearGradient id="v" x1="2261.35" x2="2357.76" y1="-574.8" y2="-574.8" gradientTransform="matrix(-1 .5 0 1 2528.92 -474.51)" gradientUnits="userSpaceOnUse"><stop offset="0" stop-color="#84d5f0"></stop><stop offset="1" stop-color="#a7ddfc"></stop></linearGradient><linearGradient id="bm" x1="251.89" x2="284.25" y1="-800.52" y2="-800.52" gradientTransform="matrix(1 -.5 0 1 -60.42 1059.38)" xlink:href="#h"></linearGradient><linearGradient id="bn" x1="238.39" x2="272.53" y1="-792.25" y2="-792.25" gradientTransform="matrix(1 -.5 0 1 -60.42 1059.38)" xlink:href="#h"></linearGradient><linearGradient id="bo" x1="276.63" x2="288.91" y1="-792.25" y2="-792.25" gradientTransform="matrix(1 -.5 0 1 -60.42 1059.38)" xlink:href="#h"></linearGradient><linearGradient id="bp" x1="238.39" x2="262.85" y1="-788.53" y2="-788.53" gradientTransform="matrix(1 -.5 0 1 -60.42 1059.38)" xlink:href="#h"></linearGradient><linearGradient id="bq" x1="238.39" x2="278.74" y1="-784.83" y2="-784.83" gradientTransform="matrix(1 -.5 0 1 -60.42 1059.38)" xlink:href="#h"></linearGradient><linearGradient id="br" x1="238.39" x2="321.47" y1="-777.14" y2="-777.14" gradientTransform="matrix(1 -.5 0 1 -60.42 1059.38)" xlink:href="#h"></linearGradient><linearGradient id="bs" x1="238.39" x2="266.4" y1="-781.13" y2="-781.13" gradientTransform="matrix(1 -.5 0 1 -60.42 1059.38)" xlink:href="#h"></linearGradient><linearGradient id="bt" x1="270.43" x2="288.91" y1="-781.13" y2="-781.13" gradientTransform="matrix(1 -.5 0 1 -60.42 1059.38)" xlink:href="#h"></linearGradient><linearGradient id="bu" x1="238.39" x2="259.14" y1="-773.38" y2="-773.38" gradientTransform="matrix(1 -.5 0 1 -60.42 1059.38)" xlink:href="#h"></linearGradient><linearGradient id="bv" x1="263.31" x2="275.69" y1="-773.38" y2="-773.38" gradientTransform="matrix(1 -.5 0 1 -60.42 1059.38)" xlink:href="#h"></linearGradient><linearGradient id="bw" x1="279.7" x2="295.29" y1="-773.38" y2="-773.38" gradientTransform="matrix(1 -.5 0 1 -60.42 1059.38)" xlink:href="#h"></linearGradient><linearGradient id="bx" x1="238.39" x2="254" y1="-769.66" y2="-769.66" gradientTransform="matrix(1 -.5 0 1 -60.42 1059.38)" xlink:href="#h"></linearGradient><linearGradient id="by" x1="238.39" x2="285.57" y1="-765.96" y2="-765.96" gradientTransform="matrix(1 -.5 0 1 -60.42 1059.38)" xlink:href="#h"></linearGradient><linearGradient id="bz" x1="238.39" x2="273.24" y1="-762.26" y2="-762.26" gradientTransform="matrix(1 -.5 0 1 -60.42 1059.38)" xlink:href="#h"></linearGradient><linearGradient id="bA" x1="277.27" x2="295.75" y1="-762.26" y2="-762.26" gradientTransform="matrix(1 -.5 0 1 -60.42 1059.38)" xlink:href="#h"></linearGradient><linearGradient id="bB" x1="238.39" x2="247.31" y1="-758.56" y2="-758.56" gradientTransform="matrix(1 -.5 0 1 -60.42 1059.38)" xlink:href="#h"></linearGradient><linearGradient id="bC" x1="238.39" x2="282.77" y1="-754.86" y2="-754.86" gradientTransform="matrix(1 -.5 0 1 -60.42 1059.38)" xlink:href="#h"></linearGradient><linearGradient id="bD" x1="305.86" x2="316.98" y1="-392.01" y2="-403.14" gradientTransform="translate(-60.42 503.84)" xlink:href="#e"></linearGradient><linearGradient id="bE" x1="302.55" x2="322.55" y1="-346.37" y2="-366.36" gradientTransform="translate(-60.42 503.31)" xlink:href="#e"></linearGradient><linearGradient id="bF" x1="313.76" x2="316.86" y1="-365.39" y2="-368.49" gradientTransform="translate(-60.42 505.7)" xlink:href="#e"></linearGradient><linearGradient id="bH" x1="2219.84" x2="2225.63" y1="237.78" y2="248.5" xlink:href="#l"></linearGradient><linearGradient id="q" x1="313.81" x2="294.99" y1="233.03" y2="226.23" gradientUnits="userSpaceOnUse"><stop offset="0" stop-color="#41a7da"></stop><stop offset=".83" stop-color="#81e1fd"></stop></linearGradient><linearGradient id="bI" x1="-694.34" x2="-679.28" y1="233.57" y2="233.57" gradientTransform="translate(1002.55)" xlink:href="#q"></linearGradient><linearGradient id="bJ" x1="-693.27" x2="-680.34" y1="223.61" y2="223.61" gradientTransform="translate(1002.55)" xlink:href="#q"></linearGradient><linearGradient id="bK" x1="-692.98" x2="-691.05" y1="236.13" y2="236.13" gradientTransform="translate(1002.55)" xlink:href="#f"></linearGradient><linearGradient id="bL" x1="2254.73" x2="2270.75" y1="298.49" y2="290.48" xlink:href="#r"></linearGradient><linearGradient id="bM" x1="2259.27" x2="2272.29" y1="970.59" y2="970.59" gradientTransform="matrix(-1 -.5 0 1 2528.92 458.03)" xlink:href="#r"></linearGradient><linearGradient id="bN" x1="2255.48" x2="2269.15" y1="297.45" y2="290.61" xlink:href="#r"></linearGradient><linearGradient id="bO" x1="2265.21" x2="2267.45" y1="290.76" y2="290.76" gradientTransform="matrix(-1 0 0 1 2528.92 0)" gradientUnits="userSpaceOnUse"><stop offset="0" stop-color="#d9e9f7"></stop><stop offset="1" stop-color="#c0d9ed"></stop></linearGradient><linearGradient id="bP" x1="2265.91" x2="2267.68" y1="290.92" y2="290.92" gradientTransform="matrix(-1 0 0 1 2528.92 0)" gradientUnits="userSpaceOnUse"><stop offset="0" stop-color="#b8d0e6"></stop><stop offset="1" stop-color="#95abbf"></stop></linearGradient><linearGradient id="bR" x1="2305.54" x2="2307.6" y1="293.68" y2="297.58" gradientTransform="matrix(-1 0 0 1 2528.92 0)" gradientUnits="userSpaceOnUse"><stop offset="0" stop-color="#739ec3"></stop><stop offset=".15" stop-color="#78a2c5"></stop><stop offset=".34" stop-color="#88adcd"></stop><stop offset=".54" stop-color="#a1bfd9"></stop><stop offset=".76" stop-color="#c4d8e9"></stop><stop offset=".99" stop-color="#f0f8fe"></stop><stop offset="1" stop-color="#f2f9ff"></stop></linearGradient><linearGradient id="bS" x1="-59.49" x2="-29.97" y1="328.78" y2="328.78" gradientTransform="translate(273.08 -36.08)" gradientUnits="userSpaceOnUse"><stop offset=".62" stop-color="#7a8a99"></stop><stop offset=".71" stop-color="#62707d"></stop></linearGradient><linearGradient id="bU" x1="2286.27" x2="2314.22" y1="291.53" y2="291.53" gradientTransform="matrix(-1 0 0 1 2528.92 0)" gradientUnits="userSpaceOnUse"><stop offset="0" stop-color="#82d6fa"></stop><stop offset="1" stop-color="#82d6fa"></stop></linearGradient><linearGradient id="bV" x1="-56.66" x2="-53.4" y1="328.17" y2="328.17" gradientTransform="translate(273.08 -36.08)" gradientUnits="userSpaceOnUse"><stop offset="0" stop-color="#b5c9e5"></stop><stop offset="1" stop-color="#c5d9ed"></stop></linearGradient><linearGradient id="bW" x1="2175.53" x2="2175.53" y1="317.29" y2="239.37" gradientTransform="matrix(-1 0 0 1 2528.92 0)" xlink:href="#q"></linearGradient><linearGradient id="s" x1="2180.11" x2="2180.11" y1="317.29" y2="253.4" gradientTransform="matrix(-1 0 0 1 2528.92 0)" gradientUnits="userSpaceOnUse"><stop offset="0" stop-color="#41a7da"></stop><stop offset="1" stop-color="#81e1fd"></stop></linearGradient><linearGradient id="bX" x1="2214.96" x2="2198.26" y1="293.07" y2="250.85" xlink:href="#s"></linearGradient><linearGradient id="bY" x1="2208.01" x2="2208.01" y1="295.34" y2="265.95" xlink:href="#s"></linearGradient><linearGradient id="ca" x1="2179.44" x2="2194.83" y1="232.73" y2="232.73" gradientTransform="matrix(-1 0 0 1 2528.92 0)" gradientUnits="userSpaceOnUse"><stop offset="0" stop-color="#dba58f"></stop><stop offset="1" stop-color="#dba58f"></stop></linearGradient><linearGradient id="cb" x1="2142.97" x2="2142.97" y1="353.43" y2="267.56" gradientTransform="matrix(-1 0 0 1 2528.92 0)" gradientUnits="userSpaceOnUse"><stop offset="0" stop-color="#3f4e74"></stop><stop offset="1" stop-color="#718ec7"></stop></linearGradient><linearGradient id="cc" x1="2140.56" x2="2140.56" y1="-570.25" y2="-617.47" gradientTransform="matrix(-1 .5 0 1 2528.92 -165.1)" gradientUnits="userSpaceOnUse"><stop offset="0" stop-color="#323f61"></stop><stop offset="1" stop-color="#50648f"></stop></linearGradient><linearGradient id="cd" x1="2139.51" x2="2160.12" y1="341.54" y2="341.54" xlink:href="#p"></linearGradient><linearGradient id="ce" x1="2170.73" x2="2211.36" y1="-113.23" y2="-113.23" gradientTransform="matrix(-.9 .18 .19 .91 2331.11 -90.16)" xlink:href="#p"></linearGradient><linearGradient id="cf" x1="240.25" x2="313.2" y1="-391.6" y2="-391.6" gradientTransform="matrix(1 -.5 0 1 -19.91 711.1)" xlink:href="#h"></linearGradient><linearGradient id="cg" x1="252.51" x2="262.22" y1="-384.87" y2="-384.87" gradientTransform="matrix(1 -.5 0 1 -19.91 711.1)" xlink:href="#h"></linearGradient><linearGradient id="t" x1="252.51" x2="263.38" y1="-382.76" y2="-382.76" gradientTransform="matrix(1 -.5 0 1 -19.91 711.1)" gradientUnits="userSpaceOnUse"><stop offset="0" stop-color="#f2b2b1"></stop><stop offset="1" stop-color="#ffd6d5"></stop></linearGradient><linearGradient id="ch" x1="269.65" x2="280.52" y1="-382.76" y2="-382.76" xlink:href="#t"></linearGradient><linearGradient id="u" x1="252.51" x2="274.24" y1="-380.64" y2="-380.64" gradientTransform="matrix(1 -.5 0 1 -19.91 711.1)" gradientUnits="userSpaceOnUse"><stop offset="0" stop-color="#41a1d9"></stop><stop offset="1" stop-color="#81dbfc"></stop></linearGradient><linearGradient id="ci" x1="252.51" x2="255.95" y1="-378.53" y2="-378.53" gradientTransform="matrix(1 -.5 0 1 -19.91 711.1)" xlink:href="#h"></linearGradient><linearGradient id="cj" x1="263.22" x2="269.9" y1="-384.87" y2="-384.87" xlink:href="#u"></linearGradient><linearGradient id="ck" x1="264.43" x2="268.68" y1="-382.76" y2="-382.76" gradientTransform="matrix(1 -.5 0 1 -19.91 711.1)" xlink:href="#h"></linearGradient><linearGradient id="cl" x1="252.51" x2="258.3" y1="-376.41" y2="-376.41" xlink:href="#t"></linearGradient><linearGradient id="cm" x1="259.27" x2="272.68" y1="-376.41" y2="-376.41" xlink:href="#t"></linearGradient><linearGradient id="cn" x1="252.51" x2="265.2" y1="-374.3" y2="-374.3" xlink:href="#u"></linearGradient><linearGradient id="co" x1="252.51" x2="260.25" y1="-372.19" y2="-372.19" xlink:href="#t"></linearGradient><linearGradient id="cp" x1="261.33" x2="269.07" y1="-372.19" y2="-372.19" xlink:href="#u"></linearGradient><linearGradient id="cq" x1="273.61" x2="281.36" y1="-376.41" y2="-376.41" xlink:href="#u"></linearGradient><linearGradient id="cr" x1="254.7" x2="276.74" y1="-370.07" y2="-370.07" gradientTransform="matrix(1 -.5 0 1 -19.91 711.1)" xlink:href="#h"></linearGradient><linearGradient id="cs" x1="275.22" x2="278.78" y1="-367.96" y2="-367.96" gradientTransform="matrix(1 -.5 0 1 -19.91 711.1)" xlink:href="#h"></linearGradient><linearGradient id="ct" x1="279.79" x2="283.35" y1="-367.96" y2="-367.96" gradientTransform="matrix(1 -.5 0 1 -19.91 711.1)" xlink:href="#h"></linearGradient><linearGradient id="cu" x1="254.7" x2="259.31" y1="-359.5" y2="-359.5" gradientTransform="matrix(1 -.5 0 1 -19.91 711.1)" xlink:href="#h"></linearGradient><linearGradient id="cv" x1="254.7" x2="274.24" y1="-367.96" y2="-367.96" xlink:href="#t"></linearGradient><linearGradient id="cw" x1="254.7" x2="274.44" y1="-365.85" y2="-365.85" xlink:href="#u"></linearGradient><linearGradient id="cx" x1="254.7" x2="262.02" y1="-363.73" y2="-363.73" gradientTransform="matrix(1 -.5 0 1 -19.91 711.1)" xlink:href="#h"></linearGradient><linearGradient id="cy" x1="262.92" x2="278.76" y1="-363.73" y2="-363.73" xlink:href="#t"></linearGradient><linearGradient id="cz" x1="254.7" x2="262.92" y1="-361.62" y2="-361.62" xlink:href="#t"></linearGradient><linearGradient id="cA" x1="263.8" x2="272.02" y1="-361.62" y2="-361.62" xlink:href="#u"></linearGradient><linearGradient id="cB" x1="260.25" x2="284.99" y1="-359.5" y2="-359.5" xlink:href="#u"></linearGradient><linearGradient id="cC" x1="254.7" x2="260.9" y1="-357.39" y2="-357.39" xlink:href="#u"></linearGradient><linearGradient id="cD" x1="246.32" x2="250.96" y1="-382.46" y2="-382.46" gradientTransform="matrix(1 -.5 0 1 -19.91 711.1)" xlink:href="#v"></linearGradient><linearGradient id="cE" x1="248.35" x2="252.2" y1="-360.04" y2="-360.04" gradientTransform="matrix(1 -.5 0 1 -19.91 711.1)" xlink:href="#v"></linearGradient><linearGradient id="cF" x1="248.35" x2="252.2" y1="-367.95" y2="-367.95" gradientTransform="matrix(1 -.5 0 1 -19.91 711.1)" xlink:href="#v"></linearGradient><linearGradient id="cG" x1="260.34" x2="271.19" y1="-352.79" y2="-352.79" xlink:href="#u"></linearGradient><linearGradient id="cH" x1="260.34" x2="272.49" y1="-350.41" y2="-350.41" xlink:href="#t"></linearGradient><linearGradient id="cI" x1="279.35" x2="291.5" y1="-350.41" y2="-350.41" xlink:href="#t"></linearGradient><linearGradient id="cJ" x1="260.34" x2="284.69" y1="-348.04" y2="-348.04" xlink:href="#t"></linearGradient><linearGradient id="cK" x1="280.51" x2="293.47" y1="-352.79" y2="-352.79" xlink:href="#t"></linearGradient><linearGradient id="cL" x1="260.34" x2="264.15" y1="-345.66" y2="-345.66" gradientTransform="matrix(1 -.5 0 1 -19.91 711.1)" xlink:href="#h"></linearGradient><linearGradient id="cM" x1="272.2" x2="279.64" y1="-352.78" y2="-352.78" gradientTransform="matrix(1 -.5 0 1 -19.91 711.1)" xlink:href="#h"></linearGradient><linearGradient id="cN" x1="273.61" x2="278.32" y1="-350.41" y2="-350.41" gradientTransform="matrix(1 -.5 0 1 -19.91 711.1)" xlink:href="#h"></linearGradient><linearGradient id="cO" x1="260.34" x2="266.79" y1="-343.29" y2="-343.29" xlink:href="#t"></linearGradient><linearGradient id="cP" x1="267.71" x2="282.7" y1="-343.29" y2="-343.29" xlink:href="#t"></linearGradient><linearGradient id="cQ" x1="260.34" x2="274.53" y1="-340.92" y2="-340.92" xlink:href="#u"></linearGradient><linearGradient id="cR" x1="260.34" x2="268.98" y1="-338.54" y2="-338.54" gradientTransform="matrix(1 -.5 0 1 -19.91 711.1)" xlink:href="#h"></linearGradient><linearGradient id="cS" x1="269.88" x2="278.52" y1="-338.54" y2="-338.54" xlink:href="#u"></linearGradient><linearGradient id="cT" x1="283.61" x2="292.25" y1="-343.29" y2="-343.29" xlink:href="#u"></linearGradient><linearGradient id="cU" x1="253.56" x2="258.7" y1="-346.23" y2="-346.23" gradientTransform="matrix(1 -.5 0 1 -19.91 711.1)" xlink:href="#v"></linearGradient><linearGradient id="w" x1="2389.04" x2="2334.84" y1="130.07" y2="102.45" gradientTransform="matrix(-1 0 0 1 2528.92 0)" gradientUnits="userSpaceOnUse"><stop offset="0" stop-color="#f5ba4c"></stop><stop offset="1" stop-color="#ffd585"></stop></linearGradient><linearGradient id="cV" x1="2342.82" x2="2367.23" y1="155.72" y2="106.91" gradientTransform="scale(-1 1) rotate(-51.9 1097.036 2707.16)" xlink:href="#w"></linearGradient><linearGradient id="x" x1="2196.73" x2="2151.82" y1="125.3" y2="75.65" gradientTransform="matrix(-1 0 0 1 2528.92 0)" gradientUnits="userSpaceOnUse"><stop offset="0" stop-color="#e05bb4"></stop><stop offset="1" stop-color="#ff9edd"></stop></linearGradient><linearGradient id="cW" x1="2140.79" x2="2168.14" y1="100.48" y2="85.94" gradientTransform="scale(-1 1) rotate(-51.9 896.042 2676.906)" xlink:href="#x"></linearGradient><linearGradient id="y" x1="2151.23" x2="2098.98" y1="195.18" y2="168.56" gradientTransform="matrix(-1 0 0 1 2528.92 0)" gradientUnits="userSpaceOnUse"><stop offset="0" stop-color="#995be0"></stop><stop offset="1" stop-color="#cc9eff"></stop></linearGradient><linearGradient id="cX" x1="2094.1" x2="2158.86" y1="208.42" y2="160.63" xlink:href="#y"></linearGradient><filter id="z" width="30.22" height="15.33" x="253.5" y="277.45" color-interpolation-filters="sRGB" filterUnits="userSpaceOnUse"><feFlood flood-color="#fff" result="bg"></feFlood><feBlend in="SourceGraphic" in2="bg"></feBlend></filter><filter id="A" width="19.95" height="9.41" x="250.08" y="293.19" color-interpolation-filters="sRGB" filterUnits="userSpaceOnUse"><feFlood flood-color="#fff" result="bg"></feFlood><feBlend in="SourceGraphic" in2="bg"></feBlend></filter><filter id="C" width="30.4" height="14.63" x="161.85" y="290.03" color-interpolation-filters="sRGB" filterUnits="userSpaceOnUse"><feFlood flood-color="#fff" result="bg"></feFlood><feBlend in="SourceGraphic" in2="bg"></feBlend></filter><filter id="E" width="12.76" height="19.52" x="182.5" y="274.2" color-interpolation-filters="sRGB" filterUnits="userSpaceOnUse"><feFlood flood-color="#fff" result="bg"></feFlood><feBlend in="SourceGraphic" in2="bg"></feBlend></filter><filter id="G" width="12.79" height="6.33" x="182.48" y="270.8" color-interpolation-filters="sRGB" filterUnits="userSpaceOnUse"><feFlood flood-color="#fff" result="bg"></feFlood><feBlend in="SourceGraphic" in2="bg"></feBlend></filter><filter id="I" width="11" height="5.19" x="183.38" y="271.32" color-interpolation-filters="sRGB" filterUnits="userSpaceOnUse"><feFlood flood-color="#fff" result="bg"></feFlood><feBlend in="SourceGraphic" in2="bg"></feBlend></filter><filter id="J" width="24.12" height="12.48" x="238" y="259.11" color-interpolation-filters="sRGB" filterUnits="userSpaceOnUse"><feFlood flood-color="#fff" result="bg"></feFlood><feBlend in="SourceGraphic" in2="bg"></feBlend></filter><filter id="K" width="46.6" height="35.6" x="292.34" y="268.02" color-interpolation-filters="sRGB" filterUnits="userSpaceOnUse"><feFlood flood-color="#fff" result="bg"></feFlood><feBlend in="SourceGraphic" in2="bg"></feBlend></filter><filter id="M" width="37.39" height="19.98" x="193.02" y="294.8" color-interpolation-filters="sRGB" filterUnits="userSpaceOnUse"><feFlood flood-color="#fff" result="bg"></feFlood><feBlend in="SourceGraphic" in2="bg"></feBlend></filter><filter id="O" width="21.29" height="14.63" x="228.73" y="295.13" color-interpolation-filters="sRGB" filterUnits="userSpaceOnUse"><feFlood flood-color="#fff" result="bg"></feFlood><feBlend in="SourceGraphic" in2="bg"></feBlend></filter><filter id="Q" width="27.01" height="12.42" x="292.25" y="238.02" color-interpolation-filters="sRGB" filterUnits="userSpaceOnUse"><feFlood flood-color="#fff" result="bg"></feFlood><feBlend in="SourceGraphic" in2="bg"></feBlend></filter><filter id="S" width="25.88" height="12.2" x="209.19" y="289.57" color-interpolation-filters="sRGB" filterUnits="userSpaceOnUse"><feFlood flood-color="#fff" result="bg"></feFlood><feBlend in="SourceGraphic" in2="bg"></feBlend></filter><filter id="U" width="27.95" height="13.67" x="214.7" y="284.7" color-interpolation-filters="sRGB" filterUnits="userSpaceOnUse"><feFlood flood-color="#fff" result="bg"></feFlood><feBlend in="SourceGraphic" in2="bg"></feBlend></filter><filter id="W" width="15.39" height="26.31" x="334.09" y="219.57" color-interpolation-filters="sRGB" filterUnits="userSpaceOnUse"><feFlood flood-color="#fff" result="bg"></feFlood><feBlend in="SourceGraphic" in2="bg"></feBlend></filter><mask id="aH" width="30.22" height="15.33" x="253.5" y="277.45" maskUnits="userSpaceOnUse"><g filter="url(#z)" mask="url(#z)"><polygon points="283.72 290.49 278.86 292.77 253.5 281.01 260.23 277.45 283.72 290.49" style="mix-blend-mode:multiply" fill="url(#a)"></polygon></g></mask><mask id="aI" width="19.95" height="9.41" x="250.08" y="293.19" maskUnits="userSpaceOnUse"><g filter="url(#A)" mask="url(#B)"><polygon points="270.03 300.32 265.17 302.61 250.09 296.76 256.81 293.19 270.03 300.32" style="mix-blend-mode:multiply" fill="url(#B)"></polygon></g></mask><mask id="aK" width="30.4" height="14.63" x="161.85" y="290.03" maskUnits="userSpaceOnUse"><g filter="url(#C)" mask="url(#F)"><polygon points="192.25 293.21 171.67 304.66 161.85 298.97 183.89 290.03 192.25 293.21" style="mix-blend-mode:multiply" fill="url(#D)"></polygon></g></mask><mask id="aM" width="12.76" height="19.52" x="182.5" y="274.2" maskUnits="userSpaceOnUse"><g filter="url(#E)" mask="url(#I)"><path d="M183.94,291.93,182.5,274.2h12.76l-1.44,17.73c-.07.47-.6.94-1.57,1.28a11.55,11.55,0,0,1-6.74,0C184.54,292.87,184,292.4,183.94,291.93Z" style="mix-blend-mode:multiply" fill="url(#F)"></path></g></mask><mask id="aO" width="12.79" height="6.33" x="182.48" y="270.8" maskUnits="userSpaceOnUse"><g filter="url(#G)" mask="url(#L)"><path d="M184.14,271.85c-2.42,1.33-2.11,3.32.44,4.47a11.72,11.72,0,0,0,8.6,0c2.55-1.15,2.86-3.14.44-4.47A11.22,11.22,0,0,0,184.14,271.85Z" style="mix-blend-mode:multiply" fill="url(#H)"></path></g></mask><mask id="aQ" width="11" height="5.19" x="183.38" y="271.32" maskUnits="userSpaceOnUse"><g filter="url(#I)" mask="url(#O)"><path d="M184.83,272.16c-2.09,1.07-1.87,2.71.32,3.66a10.56,10.56,0,0,0,7.47,0c2.18-.95,2.4-2.59.31-3.66A10.18,10.18,0,0,0,184.83,272.16Z" style="mix-blend-mode:multiply" fill="url(#c)"></path></g></mask><mask id="aZ" width="24.12" height="12.48" x="238" y="259.11" maskUnits="userSpaceOnUse"><g filter="url(#J)" mask="url(#S)"><polygon points="262.13 268.43 254.6 271.59 238 262.79 246.45 259.11 262.13 268.43" style="mix-blend-mode:multiply" fill="url(#b)"></polygon></g></mask><mask id="ba" width="46.6" height="35.6" x="292.34" y="268.02" maskUnits="userSpaceOnUse"><g filter="url(#K)" mask="url(#U)"><polygon points="338.93 294 319.7 303.62 292.34 286.14 327.42 268.02 338.17 285.43 338.93 294" style="mix-blend-mode:multiply" fill="url(#L)"></polygon></g></mask><mask id="bc" width="37.39" height="19.98" x="193.02" y="294.8" maskUnits="userSpaceOnUse"><g filter="url(#M)" mask="url(#X)"><polygon points="230.41 310.36 219.84 314.78 193.02 299.96 204.87 294.8 230.41 310.36" style="mix-blend-mode:multiply" fill="url(#N)"></polygon></g></mask><mask id="bh" width="21.29" height="14.63" x="228.73" y="295.13" maskUnits="userSpaceOnUse"><g filter="url(#O)" mask="url(#ab)"><path d="M250,295.13l-19.48,9.75a3.9,3.9,0,0,0-1.81,3.26c0,1.3.81,2,1.81,1.45L250,299.85a3.1,3.1,0,0,1-.48-2.12A5.6,5.6,0,0,1,250,295.13Z" style="mix-blend-mode:multiply" fill="url(#P)"></path></g></mask><mask id="bG" width="27.01" height="12.42" x="292.25" y="238.02" maskUnits="userSpaceOnUse"><g filter="url(#Q)" mask="url(#af)"><polygon points="319.26 242.95 303.21 250.44 292.25 244.93 308.81 238.02 319.26 242.95" style="mix-blend-mode:multiply" fill="url(#R)"></polygon></g></mask><mask id="bQ" width="25.88" height="12.2" x="209.19" y="289.57" maskUnits="userSpaceOnUse"><g filter="url(#S)" mask="url(#ak)"><polygon points="235.07 299.82 230.93 301.76 209.19 292.28 214.31 289.57 235.07 299.82" style="mix-blend-mode:multiply" fill="url(#T)"></polygon></g></mask><mask id="bT" width="27.95" height="13.67" x="214.7" y="284.7" maskUnits="userSpaceOnUse"><g filter="url(#U)" mask="url(#an)"><path d="M242.33,293.67,224.9,285a3.21,3.21,0,0,0-2.53,0L215,288.63a.48.48,0,0,0-.32.43c0,.1,0,.28.32.42L232.14,298a3.69,3.69,0,0,0,1.59.33,3.62,3.62,0,0,0,1.58-.33l7-3.51a.45.45,0,0,0,0-.86Z" style="mix-blend-mode:multiply" fill="url(#V)"></path></g></mask><mask id="bZ" width="15.39" height="26.31" x="334.09" y="219.57" maskUnits="userSpaceOnUse"><g filter="url(#W)" mask="url(#ar)"><path d="M338,224.54c.3-1.44,1.08,1.69,3.4-1.46l6.22-3.51s3.89,5.3.51,10.78c-2.9,4.7-.14,12.72-2.82,15.53-4.91.05.71-2.15.71-2.15l-2.34-9.87s-6.18,1.42-8.69-.56a3.57,3.57,0,0,1-.88-1.23h0C336.46,232.82,337.69,226,338,224.54Z" style="mix-blend-mode:multiply" fill="url(#X)"></path></g></mask></defs><g data-name="Layer 1"><path fill="url(#d)" d="M137.54,241.6c0-11,8.94-24.43,20-29.95,6.13-3.06,12-3,15.62-.46l5.68,4.49-3-1.13a14.64,14.64,0,0,1,1.62,7.08c0,11-8.94,24.44-20,30-4.63,2.31-8.89,2.86-12.27,1.91l1.55,2-4.66-3.5h0A12.73,12.73,0,0,1,137.54,241.6Z"></path><path fill="url(#Y)" d="M142.71,245.49c0,11,8.94,15.49,20,10s20-18.92,20-29.95-8.94-15.49-20-10S142.71,234.46,142.71,245.49Z"></path><path fill="#f9fafa" d="M161.77,237c-.8.39-1.44.07-1.44-.72v-7.8a2.68,2.68,0,0,1,1.44-2.16c.8-.4,1.44-.08,1.44.72v7.79A2.71,2.71,0,0,1,161.77,237Z"></path><path fill="#f9fafa" d="M157,231.37c.67-.75,1.56-1,2-.51s.2,1.46-.48,2.22a11,11,0,0,0-3,6.94c0,3.51,2.86,4.94,6.37,3.18s6.37-6,6.37-9.54c0-2.19-1.11-3.64-3-3.89-.67-.1-.86-.89-.44-1.77a2.3,2.3,0,0,1,2-1.44c2.69.37,4.29,2.48,4.29,5.65,0,5.1-4.15,11.33-9.25,13.88s-9.25.47-9.25-4.63C152.52,238.23,154.18,234.46,157,231.37Z"></path><path fill="url(#e)" d="M100.22,196.83c0-10.36,8.4-23,18.75-28.12,5.76-2.88,11.23-2.81,14.67-.44l5.33,4.22-2.78-1.06a13.68,13.68,0,0,1,1.52,6.65c0,10.35-8.39,22.94-18.74,28.12-4.35,2.17-8.34,2.69-11.52,1.8l1.45,1.92-4.37-3.29h0A12,12,0,0,1,100.22,196.83Z"></path><ellipse cx="123.82" cy="191.1" fill="url(#Z)" rx="24.01" ry="14.64" transform="rotate(-52.02 123.82 191.104)"></ellipse><path fill="#f9fafa" d="M115.66,196.22,114,197.66a7.14,7.14,0,0,0,.5,1.62l1.75-1.2a4.12,4.12,0,0,0,1,1.28l-1.17,1.93a5,5,0,0,0,1.37.69l1.36-1.84a5.54,5.54,0,0,0,1.8.14l-.33,1.92a10,10,0,0,0,1.88-.44l.59-2a8.38,8.38,0,0,0,1-.45,10.68,10.68,0,0,0,1-.59l.59,1.39a17,17,0,0,0,1.88-1.44L127,197.1a16.55,16.55,0,0,0,1.8-1.94l1.36.48a22.85,22.85,0,0,0,1.37-2l-1.16-.78a14.88,14.88,0,0,0,1-2.32l1.75-.55a15.11,15.11,0,0,0,.5-2.12l-1.68.24a9.77,9.77,0,0,0,.07-1.07,8.14,8.14,0,0,0-.07-1l1.68-1.43a6.84,6.84,0,0,0-.5-1.62l-1.75,1.2a4.1,4.1,0,0,0-1-1.28l1.16-1.93a4.9,4.9,0,0,0-1.37-.69l-1.36,1.84a5.27,5.27,0,0,0-1.8-.15l.33-1.91a9.24,9.24,0,0,0-1.88.44l-.59,2c-.34.13-.68.28-1,.46a11.88,11.88,0,0,0-1,.58l-.59-1.38a17,17,0,0,0-1.88,1.44l.33,1.58a16.64,16.64,0,0,0-1.8,2l-1.36-.48c-.49.66-1,1.35-1.37,2.05l1.17.78a14.94,14.94,0,0,0-1,2.32l-1.75.55a15.11,15.11,0,0,0-.5,2.12l1.68-.25a10.11,10.11,0,0,0-.07,1.08A7.85,7.85,0,0,0,115.66,196.22ZM120,193a7.25,7.25,0,0,1,3.87-5.8c2.14-1.07,3.87-.21,3.87,1.93a7.27,7.27,0,0,1-3.87,5.8C121.68,196,120,195.17,120,193Z"></path><path fill="url(#f)" d="M390.17,157.33c0-12.42,10.07-27.54,22.5-33.75,6.92-3.46,13.49-3.38,17.61-.53l6.41,5.07-3.35-1.28a16.41,16.41,0,0,1,1.84,8c0,12.42-10.08,27.54-22.51,33.75-5.21,2.61-10,3.23-13.83,2.16l1.75,2.31-5.25-4h0C392,166.17,390.17,162.79,390.17,157.33Z"></path><path fill="url(#aa)" d="M396,161.72c0,12.42,10.08,17.46,22.5,11.25S441,151.64,441,139.21,430.92,121.74,418.49,128,396,149.29,396,161.72Z"></path><path fill="#f9fafa" d="M408.91,147.62l-3.82,1.91v16.7l2.88-1.44V158l.94-.47a7.18,7.18,0,0,0,4.38-6.51v-1.29C413.29,147,411.72,146.21,408.91,147.62Zm1.5,4.71a2.62,2.62,0,0,1-1.6,2.62l-.84.41v-4.62l.84-.42c1.1-.55,1.6-.28,1.6,1Z"></path><polygon fill="#f9fafa" points="420.33 148.8 417.69 150.13 417.69 143.23 414.8 144.67 414.8 161.37 417.69 159.93 417.69 152.8 420.33 151.47 420.33 158.6 423.22 157.16 423.22 140.46 420.33 141.91 420.33 148.8"></polygon><path fill="#f9fafa" d="M429.4,137.37l-3.82,1.91V156l2.89-1.44v-6.78l.93-.46a7.21,7.21,0,0,0,4.39-6.52v-1.29C433.79,136.7,432.21,136,429.4,137.37Zm1.5,4.71a2.62,2.62,0,0,1-1.6,2.62l-.83.41v-4.62l.83-.42c1.1-.55,1.6-.28,1.6,1Z"></path><path fill="url(#ab)" d="M283.81,87c0-13,10.55-28.85,23.58-35.37,7.24-3.62,14.12-3.53,18.45-.55l6.71,5.31L329,55.05A17.2,17.2,0,0,1,331,63.42c0,13-10.55,28.86-23.57,35.37-5.47,2.73-10.49,3.38-14.49,2.26l1.83,2.42-5.5-4.14h0C285.77,96.26,283.81,92.72,283.81,87Z"></path><ellipse cx="313.49" cy="79.8" fill="url(#ac)" rx="30.2" ry="18.41" transform="rotate(-52.02 313.486 79.8)"></ellipse><polygon fill="#f9fafa" points="303.88 72.52 323.27 62.83 323 66.57 310.58 72.78 322.54 72.83 322.23 77.11 308.17 84.12 308.66 91.01 313.5 90.69 318.34 86.17 318.68 81.45 322.04 79.78 321.51 87.09 313.5 94.58 305.47 95.11 304.57 82.3 315.65 76.78 304.18 76.73 303.88 72.52"></polygon><path fill="url(#g)" d="M114.56,113.67c0-10.43,8.46-23.11,18.89-28.33,5.8-2.9,11.31-2.83,14.78-.44l5.37,4.25-2.81-1.07a13.8,13.8,0,0,1,1.54,6.7c0,10.43-8.45,23.12-18.88,28.33-4.38,2.19-8.41,2.71-11.61,1.81l1.47,1.94-4.41-3.31h0A12.07,12.07,0,0,1,114.56,113.67Z"></path><path fill="url(#ad)" d="M119.45,117.35c0,10.43,8.45,14.66,18.88,9.44s18.89-17.9,18.89-28.33S148.76,83.8,138.33,89,119.45,106.92,119.45,117.35Z"></path><path fill="#f9fafa" d="M125 115.85V114l9.1-8.23v2.33l-5.82 5.2 5.82-.66v2.33zM136.82 117.94l-2.29 1.15 5.75-20.84 2.29-1.15zM143 110.46l.27-2.47 5.59-5-5.59.5-.27-2.2 9.14-.88v1.88z"></path><path fill="#e1f7fa" d="M363.82,156.28l-69.9,35c-1.27.64-2.31.12-2.31-1.16V135.7a4.36,4.36,0,0,1,2.31-3.47l69.9-34.95c1.27-.64,2.31-.12,2.31,1.15v54.39A4.35,4.35,0,0,1,363.82,156.28Z"></path><path fill="url(#ae)" d="M363.82,97.28l-69.9,34.95a4.36,4.36,0,0,0-2.31,3.47v3.77l74.52-37.27V98.43C366.13,97.16,365.1,96.64,363.82,97.28Z"></path><path fill="url(#h)" d="M296.34,142.66,320,130.84a1.74,1.74,0,0,0,.93-1.4c0-.51-.41-.72-.93-.46L296.34,140.8a1.73,1.73,0,0,0-.94,1.39C295.4,142.71,295.82,142.92,296.34,142.66Z"></path><path fill="url(#af)" d="M296.34,164.22,322.82,151a1.72,1.72,0,0,0,.93-1.39c0-.52-.41-.73-.93-.47l-26.48,13.25a1.73,1.73,0,0,0-.94,1.39C295.4,164.27,295.82,164.48,296.34,164.22Z"></path><path fill="url(#ag)" d="M296.34,146.19l17.9-8.95a1.76,1.76,0,0,0,.93-1.4c0-.51-.42-.72-.93-.46l-17.9,9a1.75,1.75,0,0,0-.94,1.4C295.4,146.24,295.82,146.45,296.34,146.19Z"></path><path fill="url(#ah)" d="M296.34,160.54l18.83-9.42a1.74,1.74,0,0,0,.93-1.4c0-.51-.41-.72-.93-.46l-18.83,9.41a1.76,1.76,0,0,0-.94,1.4C295.4,160.59,295.82,160.8,296.34,160.54Z"></path><path fill="url(#ai)" d="M326.85,149l10.4-5.2a1.75,1.75,0,0,0,.93-1.4c0-.51-.41-.72-.93-.47l-10.4,5.21a1.72,1.72,0,0,0-.93,1.39C325.92,149,326.33,149.22,326.85,149Z"></path><path fill="url(#aj)" d="M349.81,117.59l-7.61,3.8a1.78,1.78,0,0,0-.93,1.4c0,.52.42.72.93.47l7.61-3.81a1.74,1.74,0,0,0,.93-1.4C350.74,117.54,350.33,117.33,349.81,117.59Z"></path><path fill="url(#ak)" d="M317.28,134.79c0,.51.42.72.93.46l20-10a1.75,1.75,0,0,0,.93-1.39c0-.52-.42-.73-.93-.47l-20,10A1.76,1.76,0,0,0,317.28,134.79Z"></path><path fill="url(#al)" d="M296.34,149.73l12.4-6.2a1.76,1.76,0,0,0,.93-1.4c0-.51-.42-.72-.93-.46l-12.4,6.2a1.75,1.75,0,0,0-.94,1.4C295.4,149.78,295.82,150,296.34,149.73Z"></path><path fill="url(#am)" d="M296.34,168l14.93-7.46a1.75,1.75,0,0,0,.93-1.4h0c0-.52-.41-.72-.93-.47l-14.93,7.47a1.75,1.75,0,0,0-.94,1.4C295.4,168.09,295.82,168.3,296.34,168Z"></path><path fill="url(#an)" d="M296.34,156.93l27.41-13.71a1.75,1.75,0,0,0,.93-1.4c0-.52-.41-.72-.93-.47l-27.41,13.71a1.76,1.76,0,0,0-.94,1.4C295.4,157,295.82,157.19,296.34,156.93Z"></path><path fill="url(#ao)" d="M344.11,131.17l-16.33,8.17a1.74,1.74,0,0,0-.93,1.4c0,.51.41.72.93.46L344.11,133a1.78,1.78,0,0,0,.93-1.4C345,131.13,344.62,130.92,344.11,131.17Z"></path><path fill="url(#ap)" d="M348,125.56,296.34,151.4a1.76,1.76,0,0,0-.94,1.4c0,.52.42.72.94.47L348,127.42a1.72,1.72,0,0,0,.93-1.39C348.94,125.51,348.53,125.3,348,125.56Z"></path><path fill="url(#aq)" d="M296.34,171.87l26.48-13.25a1.72,1.72,0,0,0,.93-1.39c0-.52-.41-.73-.93-.47L296.34,170a1.73,1.73,0,0,0-.94,1.39C295.4,171.92,295.82,172.13,296.34,171.87Z"></path><path fill="url(#ar)" d="M296.34,175.55l32.07-16a1.75,1.75,0,0,0,.93-1.39c0-.52-.42-.73-.93-.47l-32.07,16a1.75,1.75,0,0,0-.94,1.4C295.4,175.6,295.82,175.81,296.34,175.55Z"></path><path fill="url(#as)" d="M326.85,156.61l10.4-5.2a1.74,1.74,0,0,0,.93-1.4c0-.51-.41-.72-.93-.46l-10.4,5.2a1.72,1.72,0,0,0-.93,1.4C325.92,156.66,326.33,156.87,326.85,156.61Z"></path><path fill="url(#at)" d="M304.82,180.25l-8.48,4.25a1.73,1.73,0,0,0-.94,1.39c0,.52.42.73.94.47l8.48-4.25a1.72,1.72,0,0,0,.93-1.39C305.75,180.2,305.34,180,304.82,180.25Z"></path><path fill="url(#au)" d="M296.34,179.16l22.55-11.28a1.75,1.75,0,0,0,.93-1.39c0-.52-.42-.73-.93-.47L296.34,177.3a1.75,1.75,0,0,0-.94,1.4C295.4,179.21,295.82,179.42,296.34,179.16Z"></path><path fill="url(#av)" d="M344.11,153.41,322.92,164a1.73,1.73,0,0,0-.94,1.39c0,.52.42.73.94.47l21.19-10.6a1.76,1.76,0,0,0,.93-1.4C345,153.36,344.62,153.15,344.11,153.41Z"></path><path fill="url(#aw)" d="M320,169.14,296.34,181a1.75,1.75,0,0,0-.94,1.4c0,.51.42.72.94.46L320,171a1.72,1.72,0,0,0,.93-1.39C320.9,169.09,320.49,168.88,320,169.14Z"></path><path fill="url(#ax)" d="M333.3,162.47l-9.18,4.59a1.76,1.76,0,0,0-.93,1.4c0,.51.42.72.93.47l9.18-4.6a1.73,1.73,0,0,0,.94-1.39C334.24,162.42,333.82,162.21,333.3,162.47Z"></path><path fill="#f39999" d="M297.18,134a2.45,2.45,0,0,1-1.29,2c-.72.36-1.3.07-1.3-.65a2.42,2.42,0,0,1,1.3-1.94C296.6,133,297.18,133.24,297.18,134Z"></path><path fill="#edf399" d="M301.39,131.85a2.44,2.44,0,0,1-1.3,2c-.71.36-1.3.07-1.3-.65a2.46,2.46,0,0,1,1.3-2C300.81,130.84,301.39,131.13,301.39,131.85Z"></path><path fill="#51c953" d="M305.6,129.75a2.46,2.46,0,0,1-1.3,1.95c-.72.35-1.3.06-1.3-.65a2.44,2.44,0,0,1,1.3-2C305,128.74,305.6,129,305.6,129.75Z"></path><ellipse cx="275" cy="357.69" fill="#f6f7f7" opacity=".7" rx="186.83" ry="93.44"></ellipse><path fill="#6c6370" d="M285,373.31a34.87,34.87,0,0,1-1.06,5.47s-.75,4-5.12,2.81c-7.93-2.1-3-3.52-5.7-4.49-1.77-.63-4.52.36-6-.81-6-4.61-5.38-11.64-4.31-12.52,2.09-1.71,9.82,3.27,12.27,3.27,1.53,0,2.54.42,3.64-.57C288.69,357.45,285.22,370.94,285,373.31Z"></path><path fill="#48486a" d="M266.67,375c1.51,1.17,4.64,1.47,6.41,2.1,2.73,1,2.6,2.33,6.76,3a3.76,3.76,0,0,0,4.17-1.69l-.11.39s-.75,4-5.12,2.81c-7.93-2.1-3-3-5.7-3.92-1.77-.63-4.52-.21-6-1.38a11.82,11.82,0,0,1-4.88-8.08A13.65,13.65,0,0,0,266.67,375Z"></path><path fill="#6c6370" d="M320.08,360.76a35.45,35.45,0,0,1-.28,5.57s-.18,4-4.66,3.51c-8.15-.95-3.45-3.06-6.29-3.63-1.84-.37-4.42,1-6.09.05-6.58-3.71-7.08-10.75-6-11.78,1.87-1.87,10.17,1.84,12.6,1.49,1.51-.21,2.58.06,3.53-1.08C321.51,344.53,320,358.38,320.08,360.76Z"></path><path fill="#48486a" d="M302.21,365c1.66.94,4.8.8,6.64,1.17,2.84.57,2.91,1.94,7.12,2a3.76,3.76,0,0,0,3.88-2.26l-.05.4s-.18,4-4.66,3.51c-8.15-.95-3.37-2.5-6.21-3.07-1.84-.37-4.5.43-6.17-.51a11.87,11.87,0,0,1-6-7.3A13.67,13.67,0,0,0,302.21,365Z"></path><path fill="url(#ay)" d="M229.86,335.66,226,432.87l-3.14,1.51-4.72-84.54c-.18-3.46-3-7.48-6.34-9.17l-37.93-19c-3.37-1.69-6.15-.44-6.34,2.83l-8.38,74.91L156.05,401l-.16-102.29Z"></path><path fill="url(#i)" d="M222.9,339v95.37l-3-1.49-8.7-79.7c-.18-3.45-3-7.48-6.34-9.16l-37.93-19c-3.37-1.69-6.15-.45-6.34,2.83L156.05,401l-3-1.49L148.93,302Z"></path><path fill="url(#az)" d="M397.35,252.88l-3.83,97.22-3.13,1.51-4.72-84.54c-.19-3.46-3-7.49-6.34-9.17l-37.93-19c-3.37-1.69-6.15-.45-6.34,2.83l-8.38,74.91-3.14,1.51-.16-102.29Z"></path><path fill="url(#aA)" d="M390.39,256.24v95.37l-3-1.49-8.69-79.7c-.19-3.46-3-7.48-6.34-9.17l-37.93-19c-3.37-1.68-6.15-.44-6.34,2.83l-4.56,73.07-3-1.5-4.14-97.43Z"></path><path fill="url(#j)" d="M306.78,301.29c.3-6.34,3.39-10.19,15.32-6.89,13.39,3.7,25.93,13.91,25.93,13.91l-4.34,14.32-13.3-3.05-4.06-2.95c-.06,1.19-.16,2.37-.33,3.51-1.45,9.33-5.27,36.36-5.27,36.36a4.3,4.3,0,0,1-3,2c-3,.42-10.47-.51-10.66-3.48-.72-11,.43-36.31-.35-52.59A8.4,8.4,0,0,1,306.78,301.29Z"></path><path d="M318.48,303.37c13.39,3.7,25.92,13.91,25.92,13.91l-1.65,5.44s-34.79-3.59-35.57-19.87C309.52,301.86,313.1,301.88,318.48,303.37Z" style="mix-blend-mode:multiply" fill="url(#aB)" opacity=".3"></path><path fill="#2f364a" d="M366.39 380.08a3 3 0 103-3A3 3 0 00366.39 380.08zM314.58 380.08a3 3 0 103-3A3 3 0 00314.58 380.08zM366.8 406.18a3 3 0 103-3A3 3 0 00366.8 406.18zM314.18 406.18a3 3 0 103-3A3 3 0 00314.18 406.18z"></path><path fill="#3c445e" d="M318.92,375.45l19.24,7.45a13.26,13.26,0,0,0,5.28,1h.05a13.3,13.3,0,0,0,5.28-1L368,375.45c1.22-.54,3.33-1.51,4.55-1s1.22,4.37,0,5l-17.22,6.71a3.16,3.16,0,0,0-1.94,2.64v0a3.17,3.17,0,0,0,1.94,2.64l17.69,10.16c.46.35.63,4-.44,4.57a5.65,5.65,0,0,1-4.53.15l-19.32-11.58a13.48,13.48,0,0,0-5.28-1h-.05a13.44,13.44,0,0,0-5.28,1l-19.24,11.54a6,6,0,0,1-4.3,0c-1.57-.66-1.68-3.93-.6-4.94l17.54-9.95a3.19,3.19,0,0,0,1.94-2.64v0a3.18,3.18,0,0,0-1.94-2.64l-17.23-6.71c-1.17-.66-1.29-4.45.06-5S317.71,374.91,318.92,375.45Z"></path><path fill="#57648a" d="M318.92,374.4l19.24,5.68a13.26,13.26,0,0,0,5.28,1h.05a13.3,13.3,0,0,0,5.28-1L368,374.4a5.91,5.91,0,0,1,4.3,0c1.36.59,1.47,1.6.29,2.26l-17.22,6.78a3.16,3.16,0,0,0-1.94,2.64v0a3.17,3.17,0,0,0,1.94,2.64l17.14,12.51c1.09.61,1.18,1.54.11,2.15a5.61,5.61,0,0,1-4.53.15L348.77,392a13.48,13.48,0,0,0-5.28-1h-.05a13.44,13.44,0,0,0-5.28,1l-19.24,11.47a6,6,0,0,1-4.3.06c-1.35-.59-1.46-1.61-.29-2.27l17.23-12.56a3.19,3.19,0,0,0,1.94-2.64v0a3.18,3.18,0,0,0-1.94-2.64l-17.23-6.78c-1.17-.66-1.06-1.67.29-2.26A5.91,5.91,0,0,1,318.92,374.4Z"></path><path fill="#3c445e" d="M335.75,383c1.29-1.74,4.4-3,8-3s6.75,1.22,8,3h.65v3c0,2.64-3.89,4.78-8.69,4.78s-8.68-2.14-8.68-4.78v-3Z"></path><ellipse cx="343.78" cy="383.04" fill="#57648a" rx="8.69" ry="4.78"></ellipse><path fill="#3c445e" d="M353.83,366.11l-2.68,14.72H336.33s-2.84-15.31-2.84-15.61h0c0-1.31,1-2.62,3-3.62a18.19,18.19,0,0,1,14.5,0C353.44,362.82,354.39,364.52,353.83,366.11Z"></path><path fill="#3c445e" d="M349,383.46c2.9-1.45,2.9-3.8,0-5.25a13.25,13.25,0,0,0-10.48,0c-2.9,1.45-2.9,3.8,0,5.25A13.25,13.25,0,0,0,349,383.46Z"></path><path fill="url(#aC)" d="M306.16,340.3l83.26-4.85v11.77h0c.09,2.14-1.48,4.29-4.74,5.92l-30.32,15.17c-6.35,3.17-16.63,3.17-23,0l-20.46-10.23c-3.31-1.66-4.87-3.85-4.73-6h0Z"></path><path fill="url(#aD)" d="M384.66,341l-30.32,15.17c-6.35,3.17-16.63,3.17-23,0l-20.46-10.23c-6.34-3.18-6.34-8.32,0-11.49l30.33-15.17c6.34-3.17,16.62-3.17,23,0l20.45,10.23C391,332.64,391,337.78,384.66,341Z"></path><path fill="url(#k)" d="M337.36,308.72l-1.22,6.08s-28.8-9.35-39.27-9.35-13.62,7.63-15.39,15.16c-3.45,14.71-7.15,33.36-9.06,43.57-.28,1.49,3.18,4.21,5.91,5.52,2,.95,8,1.92,8.58.76,0,0,5.24-16,9.54-27.6a50.55,50.55,0,0,0,3.09-15.71s17.13,11.15,37.18,13.54c5.78.69,15.22,0,19.55-1.21,10.67-3,14.65-10,14.63-18.64,0-7.48.11-10.51-2.09-21.25C364.16,276.91,337.36,308.72,337.36,308.72Z"></path><path d="M272.42,364.18c1.91-10.21,5.61-28.86,9.06-43.57.29-1.22.62-2.43,1-3.62,9.47-3.11,23.67-6,34.25-7.85,10,2.61,19.41,5.66,19.41,5.66l1.22-6.08a96.37,96.37,0,0,1,6.76-7.06c0,.17,0,.36,0,.53,0,3.32-1.49,9-2.81,13.44a6.82,6.82,0,0,1-8.2,4.65c-5.49-1.37-13.25-3.13-17.32-3.2-6.42-.12-7.65,9,9.78,15.29,22.26,8,37.79-2.82,37.78-11,0-7.48-2.8-14.47-5-25.21-.3-1.47-.62-2.75-1-3.88,5.17-2,9.77-.94,11.46,7.28,2.2,10.74,2.08,13.77,2.09,21.25,0,8.68-4,15.64-14.63,18.64-4.33,1.22-13.77,1.9-19.55,1.21-20.05-2.39-37.18-13.54-37.18-13.54a50.55,50.55,0,0,1-3.09,15.71c-4.3,11.64-9.54,27.6-9.54,27.6-.57,1.16-6.61.19-8.58-.76C275.6,368.39,272.14,365.67,272.42,364.18Z" style="mix-blend-mode:multiply" fill="url(#aE)" opacity=".2"></path><path fill="url(#aF)" d="M132.06,305l0-4.35,4.95-.55L307.58,215c5.81-2.9,15.22-2.9,21,0l78.64,39.33h0l4.33.46,0,5.18c-.19,1.77-1.61,3.52-4.32,4.87L236.09,350.25c-5.8,2.9-15.21,2.9-21,0l-78.64-39.32C133.2,309.31,132.06,307,132.06,305Z"></path><path fill="url(#aG)" d="M407.24,259.91,236.09,345.37c-5.8,2.9-15.21,2.9-21,0L136.43,306c-5.8-2.9-5.8-7.61,0-10.51l171.15-85.46c5.81-2.9,15.22-2.9,21,0l78.64,39.33C413.05,252.3,413.05,257,407.24,259.91Z"></path><g mask="url(#aH)"><polygon points="283.72 290.49 278.86 292.77 253.5 281.01 260.23 277.45 283.72 290.49" style="mix-blend-mode:multiply" fill="url(#l)"></polygon></g><g mask="url(#aI)"><polygon points="270.03 300.32 265.17 302.61 250.09 296.76 256.81 293.19 270.03 300.32" style="mix-blend-mode:multiply" fill="url(#aJ)"></polygon></g><g mask="url(#aK)"><polygon points="192.25 293.21 171.67 304.66 161.85 298.97 183.89 290.03 192.25 293.21" style="mix-blend-mode:multiply" fill="url(#aL)"></polygon></g><path fill="#f3718a" d="M183.94,291.93,182.5,274.2h12.76l-1.44,17.73c-.07.47-.6.94-1.57,1.28a11.55,11.55,0,0,1-6.74,0C184.54,292.87,184,292.4,183.94,291.93Z"></path><g mask="url(#aM)"><path d="M183.94,291.93,182.5,274.2h12.76l-1.44,17.73c-.07.47-.6.94-1.57,1.28a11.55,11.55,0,0,1-6.74,0C184.54,292.87,184,292.4,183.94,291.93Z" style="mix-blend-mode:multiply" fill="url(#aN)" opacity=".5"></path></g><path fill="#f7b2d5" d="M184.14,271.85c-2.42,1.33-2.11,3.32.44,4.47a11.72,11.72,0,0,0,8.6,0c2.55-1.15,2.86-3.14.44-4.47A11.22,11.22,0,0,0,184.14,271.85Z"></path><g mask="url(#aO)"><path d="M184.14,271.85c-2.42,1.33-2.11,3.32.44,4.47a11.72,11.72,0,0,0,8.6,0c2.55-1.15,2.86-3.14.44-4.47A11.22,11.22,0,0,0,184.14,271.85Z" style="mix-blend-mode:multiply" fill="url(#aP)" opacity=".3"></path></g><path fill="#fe9cb3" d="M184.83,272.16c-2.09,1.07-1.87,2.71.32,3.66a10.56,10.56,0,0,0,7.47,0c2.18-.95,2.4-2.59.31-3.66A10.18,10.18,0,0,0,184.83,272.16Z"></path><g mask="url(#aQ)"><path d="M184.83,272.16c-2.09,1.07-1.87,2.71.32,3.66a10.56,10.56,0,0,0,7.47,0c2.18-.95,2.4-2.59.31-3.66A10.18,10.18,0,0,0,184.83,272.16Z" style="mix-blend-mode:multiply" fill="url(#aR)" opacity=".5"></path></g><path fill="url(#aS)" d="M192.62,275.82c-.22.09-.45.17-.69.25l1.77-16.59c0-.37,1-2.68,1-2.68s.4,2.45.36,2.83l-1.69,15.76A4.2,4.2,0,0,1,192.62,275.82Z"></path><path d="M192.66,275.8l2.05-19s.4,2.45.36,2.83l-1.69,15.76A4.4,4.4,0,0,1,192.66,275.8Z" style="mix-blend-mode:multiply" fill="url(#aT)" opacity=".3"></path><path fill="#f2d5aa" d="M194.4,260.25h-.08a.69.69,0,0,1-.61-.75v-.07a13.36,13.36,0,0,1,1-2.62,9.46,9.46,0,0,1,.36,2.83v.08A.68.68,0,0,1,194.4,260.25Z"></path><path fill="#48486a" d="M194.71,256.8c.09,0,.18.5.24,1.08a.71.71,0,0,1-.21,0h-.08a.6.6,0,0,1-.38-.19A2.9,2.9,0,0,1,194.71,256.8Z"></path><path fill="url(#aU)" d="M188.31,276.48l-3.19-16.64c-.07-.37.12-2.85.12-2.85a28.45,28.45,0,0,1,1.23,2.59l3.23,16.89A12.89,12.89,0,0,1,188.31,276.48Z"></path><path d="M188.31,276.48l-3.19-16.64c-.07-.37.12-2.85.12-2.85L189,276.5Z" style="mix-blend-mode:multiply" fill="url(#aV)" opacity=".3"></path><path fill="#f2d5aa" d="M185.83,260.4h.08a.68.68,0,0,0,.54-.8v-.07a13,13,0,0,0-1.2-2.53,9.51,9.51,0,0,0-.12,2.85v.08A.69.69,0,0,0,185.83,260.4Z"></path><path fill="#faa7af" d="M185.24,257c-.09,0-.14.51-.15,1.1l.21,0h.08a.74.74,0,0,0,.37-.22A2.92,2.92,0,0,0,185.24,257Z"></path><path fill="url(#m)" d="M188.51,276.49l.19-21.81c0-.38.68-2.77.68-2.77s.7,2.4.7,2.78l-.2,21.77A12.48,12.48,0,0,1,188.51,276.49Z"></path><path d="M188.51,276.49l.19-21.81c0-.38.68-2.77.68-2.77l-.2,24.58Z" style="mix-blend-mode:multiply" fill="url(#aW)" opacity=".3"></path><path fill="#f2d5aa" d="M189.29,255.37h.08a.68.68,0,0,0,.69-.68v-.07a12.72,12.72,0,0,0-.68-2.71,10,10,0,0,0-.68,2.77v.08A.69.69,0,0,0,189.29,255.37Z"></path><path fill="#36ad9b" d="M189.38,251.91c-.09,0-.23.48-.36,1a.47.47,0,0,0,.2.06h.08a.69.69,0,0,0,.4-.14A2.71,2.71,0,0,0,189.38,251.91Z"></path><path fill="url(#n)" d="M180.23,258l5.13,17.94-.21-.08a3.08,3.08,0,0,1-1.62-1.33l-.1-.36a.87.87,0,0,1-.05-.22V274l-4.49-15.65c-.1-.36-.13-2.85-.13-2.85S180.12,257.6,180.23,258Z"></path><path d="M184.51,275.48a2.49,2.49,0,0,1-1-1l-.1-.36a.87.87,0,0,1-.05-.22V274l-4.49-15.65c-.1-.36-.13-2.85-.13-2.85Z" style="mix-blend-mode:multiply" fill="url(#aX)" opacity=".3"></path><path fill="#f2d5aa" d="M179.67,258.83h.07a.69.69,0,0,0,.47-.85l0-.07a13.7,13.7,0,0,0-1.42-2.41,9.5,9.5,0,0,0,.13,2.85l0,.08A.69.69,0,0,0,179.67,258.83Z"></path><path fill="#48486a" d="M178.77,255.49c-.09,0-.09.52-.06,1.1a.55.55,0,0,0,.22,0l.07,0a.69.69,0,0,0,.35-.25A3.2,3.2,0,0,0,178.77,255.49Z"></path><path fill="url(#aY)" d="M259.79,277.61l.62-1.48,1.77.58,53.92-28a2.5,2.5,0,0,1,2.26,0l17.07,9.38h3.75l.88,2.06h0a1.89,1.89,0,0,1,.16.71,1.79,1.79,0,0,1-1,1.6l-55.5,28a2.47,2.47,0,0,1-1.13.27,2.4,2.4,0,0,1-1.12-.27L260.6,280a1.78,1.78,0,0,1-1-1.6A1.87,1.87,0,0,1,259.79,277.61Z"></path><path fill="#3d3d59" d="M260.65,275.84l56.29-28.43a1.19,1.19,0,0,1,1.07,0l21.17,10.69a.47.47,0,0,1,0,.83l-56.3,28.42a1.19,1.19,0,0,1-1.07,0l-21.16-10.68A.47.47,0,0,1,260.65,275.84Z"></path><path fill="#5c759e" d="M270.17 277.82l-2.61 1.31a1 1 0 01-.84 0l-2.49-1.25c-.24-.13-.27-.32-.06-.43l2.61-1.31a1 1 0 01.84 0l2.49 1.25C270.35 277.52 270.38 277.71 270.17 277.82zM274.05 275.85l-2.55 1.29a1 1 0 01-.83 0l-2.55-1.29c-.23-.11-.23-.3 0-.42l2.55-1.28a1 1 0 01.83 0l2.55 1.28C274.28 275.55 274.28 275.74 274.05 275.85zM278 273.88l-2.55 1.28a1 1 0 01-.84 0L272 273.88c-.23-.12-.23-.31 0-.42l2.55-1.29a1 1 0 01.84 0l2.55 1.29C278.2 273.57 278.2 273.76 278 273.88zM281.88 271.9l-2.55 1.29a1.09 1.09 0 01-.83 0L276 271.9c-.23-.12-.23-.3 0-.42l2.55-1.29a1.09 1.09 0 01.83 0l2.55 1.29C282.11 271.6 282.11 271.78 281.88 271.9zM285.8 269.92l-2.55 1.29a1 1 0 01-.84 0l-2.55-1.29c-.23-.11-.23-.3 0-.42l2.55-1.28a1 1 0 01.84 0l2.55 1.28C286 269.62 286 269.81 285.8 269.92zM289.71 268l-2.55 1.28a1 1 0 01-.83 0L283.78 268c-.23-.12-.23-.31 0-.43l2.55-1.28a1 1 0 01.83 0l2.55 1.28C289.94 267.64 289.94 267.83 289.71 268zM293.63 266l-2.55 1.29a1.11 1.11 0 01-.84 0L287.69 266c-.23-.12-.23-.31 0-.42l2.55-1.29a1 1 0 01.84 0l2.55 1.29C293.86 265.66 293.86 265.85 293.63 266zM297.54 264L295 265.28a1 1 0 01-.83 0L291.61 264c-.23-.11-.23-.3 0-.42l2.55-1.29a1.09 1.09 0 01.83 0l2.55 1.29C297.77 263.69 297.77 263.88 297.54 264zM301.46 262l-2.55 1.28a1 1 0 01-.84 0L295.52 262c-.23-.12-.23-.31 0-.43l2.55-1.28a1 1 0 01.84 0l2.55 1.28C301.69 261.71 301.69 261.9 301.46 262zM305.37 260l-2.55 1.29a1.09 1.09 0 01-.83 0L299.44 260c-.23-.12-.23-.31 0-.42l2.55-1.29a1 1 0 01.83 0l2.55 1.29C305.6 259.73 305.6 259.92 305.37 260zM309.29 258.06l-2.55 1.29a1 1 0 01-.84 0l-2.55-1.29c-.23-.11-.23-.3 0-.42l2.55-1.29a1.11 1.11 0 01.84 0l2.55 1.29C309.52 257.76 309.52 258 309.29 258.06zM313.2 256.09l-2.55 1.28a1 1 0 01-.83 0l-2.55-1.28c-.23-.12-.23-.31 0-.43l2.55-1.28a1 1 0 01.83 0l2.55 1.28C313.43 255.78 313.43 256 313.2 256.09zM317.15 254.09l-2.61 1.32a1 1 0 01-.84 0l-2.48-1.25c-.25-.13-.28-.32-.07-.43l2.61-1.31a1 1 0 01.84 0l2.49 1.25C317.33 253.8 317.36 254 317.15 254.09zM323.51 250.88l-5.06 2.55a1 1 0 01-.83 0l-2.49-1.25c-.25-.13-.28-.32-.06-.43l5.05-2.55a1.12 1.12 0 01.84 0l2.49 1.26C323.69 250.59 323.72 250.77 323.51 250.88zM320.89 256.15l2.6-1.32c.22-.11.22-.28 0-.39l-2.6-1.32a1 1 0 00-.78 0l-2.6 1.31c-.22.11-.22.28 0 .39l2.6 1.32A1 1 0 00320.89 256.15zM317 258.12l2.6-1.31c.22-.11.22-.29 0-.39L317 255.1a1 1 0 00-.79 0l-2.6 1.32c-.21.1-.21.28 0 .39l2.6 1.31A1 1 0 00317 258.12zM313.06 260.1l2.6-1.31c.22-.11.22-.29 0-.4l-2.6-1.31a1 1 0 00-.78 0l-2.6 1.31c-.22.11-.22.29 0 .4l2.6 1.31A1 1 0 00313.06 260.1zM309.15 262.08l2.6-1.32c.22-.1.22-.28 0-.39l-2.6-1.31a1 1 0 00-.79 0l-2.6 1.31c-.21.11-.21.29 0 .39l2.6 1.32A1 1 0 00309.15 262.08zM305.23 264.05l2.6-1.31c.22-.11.22-.28 0-.39l-2.6-1.32a1 1 0 00-.78 0l-2.6 1.32c-.22.11-.22.28 0 .39l2.6 1.31A1 1 0 00305.23 264.05zM301.32 266l2.6-1.31c.22-.11.22-.29 0-.4l-2.6-1.31a1 1 0 00-.79 0l-2.6 1.31c-.21.11-.21.29 0 .4l2.6 1.31A1 1 0 00301.32 266zM297.4 268l2.6-1.31c.22-.11.22-.29 0-.4L297.4 265a1 1 0 00-.78 0L294 266.3c-.22.11-.22.29 0 .4l2.6 1.31A1 1 0 00297.4 268zM293.49 270l2.6-1.32c.22-.11.22-.28 0-.39l-2.6-1.32a1 1 0 00-.79 0l-2.6 1.32c-.21.11-.21.28 0 .39l2.6 1.32A1.08 1.08 0 00293.49 270zM289.57 272l2.6-1.31c.22-.11.22-.29 0-.4l-2.6-1.31a1 1 0 00-.78 0l-2.6 1.31c-.22.11-.22.29 0 .4l2.6 1.31A1 1 0 00289.57 272zM285.66 273.94l2.6-1.31c.22-.11.22-.29 0-.4l-2.6-1.31a1 1 0 00-.79 0l-2.6 1.31c-.21.11-.21.29 0 .4l2.6 1.31A1 1 0 00285.66 273.94zM281.74 275.92l2.6-1.32c.22-.11.22-.28 0-.39l-2.6-1.32a1 1 0 00-.78 0l-2.6 1.32c-.22.11-.22.28 0 .39l2.6 1.32A1 1 0 00281.74 275.92zM277.83 277.89l2.6-1.31c.22-.11.22-.29 0-.4l-2.6-1.31a1 1 0 00-.79 0l-2.6 1.31c-.21.11-.21.29 0 .4l2.6 1.31A1 1 0 00277.83 277.89zM271.47 281.1l5-2.54c.22-.11.22-.29 0-.4l-2.6-1.31a1 1 0 00-.78 0l-5.05 2.54c-.21.11-.21.29 0 .4l2.6 1.31A1 1 0 00271.47 281.1zM321.42 252.86l2.61 1.31a1 1 0 00.78 0l.11-.06a1 1 0 01.79 0l3.12 1.58a1 1 0 00.78 0l1.71-.86c.21-.11.21-.29 0-.4l-6.51-3.28a1 1 0 00-.78 0l-2.61 1.31C321.21 252.57 321.21 252.75 321.42 252.86z"></path><path fill="#5c759e" d="M325.7 257.67l2.6-1.32c.22-.11.22-.28 0-.39l-2.6-1.32a1.05 1.05 0 00-.78 0L322.31 256c-.21.11-.21.28 0 .39l2.6 1.32A1 1 0 00325.7 257.67zM321.78 259.64l2.61-1.31c.21-.11.21-.29 0-.39l-2.61-1.32a1 1 0 00-.78 0l-2.6 1.32c-.22.1-.22.28 0 .39l2.6 1.31A1 1 0 00321.78 259.64zM317.87 261.62l2.6-1.31c.22-.11.22-.29 0-.4l-2.6-1.31a1 1 0 00-.79 0l-2.6 1.31c-.21.11-.21.29 0 .4l2.6 1.31A1 1 0 00317.87 261.62zM314 263.6l2.6-1.32c.22-.11.22-.28 0-.39l-2.6-1.32a1.05 1.05 0 00-.78 0l-2.6 1.32c-.22.11-.22.28 0 .39l2.6 1.32A1 1 0 00314 263.6zM310 265.58l2.6-1.32c.22-.11.22-.29 0-.39l-2.6-1.32a1 1 0 00-.79 0l-2.6 1.32c-.21.1-.21.28 0 .39l2.6 1.32A1.08 1.08 0 00310 265.58zM306.12 267.55l2.6-1.31c.22-.11.22-.29 0-.4l-2.6-1.31a1 1 0 00-.78 0l-2.6 1.31c-.22.11-.22.29 0 .4l2.6 1.31A1 1 0 00306.12 267.55zM302.21 269.53l2.6-1.32c.22-.1.22-.28 0-.39l-2.6-1.31a1 1 0 00-.79 0l-2.6 1.31c-.21.11-.21.29 0 .39l2.6 1.32A1 1 0 00302.21 269.53zM298.29 271.51l2.6-1.32c.22-.11.22-.28 0-.39l-2.6-1.32a1 1 0 00-.78 0l-2.6 1.32c-.22.11-.22.28 0 .39l2.6 1.32A1.05 1.05 0 00298.29 271.51zM294.38 273.48l2.6-1.31c.22-.11.22-.29 0-.4l-2.6-1.31a1 1 0 00-.79 0l-2.6 1.31c-.21.11-.21.29 0 .4l2.6 1.31A1 1 0 00294.38 273.48zM290.46 275.46l2.6-1.32c.22-.1.22-.28 0-.39l-2.6-1.31a1 1 0 00-.78 0l-2.6 1.31c-.22.11-.22.29 0 .39l2.6 1.32A1 1 0 00290.46 275.46zM286.55 277.44l2.6-1.32c.22-.11.22-.28 0-.39l-2.6-1.32a1 1 0 00-.79 0l-2.6 1.32c-.21.11-.21.28 0 .39l2.6 1.32A1 1 0 00286.55 277.44zM282.63 279.41l2.6-1.31c.22-.11.22-.29 0-.4l-2.6-1.31a1 1 0 00-.78 0l-2.6 1.31c-.22.11-.22.29 0 .4l2.6 1.31A1 1 0 00282.63 279.41zM275.37 283.08l5.95-3c.22-.11.22-.29 0-.4l-2.6-1.31a1 1 0 00-.79 0l-5.94 3c-.22.11-.22.28 0 .39l2.6 1.32A1 1 0 00275.37 283.08zM283.14 283.1l-3.88 2a1 1 0 01-.74 0l-2.65-1.33c-.2-.11-.2-.27 0-.38l3.88-2a1 1 0 01.74 0l2.65 1.34C283.34 282.83 283.34 283 283.14 283.1zM287.05 281.13l-2.64 1.33a.87.87 0 01-.74 0L281 281.13c-.2-.11-.2-.27 0-.38l2.65-1.33a.87.87 0 01.74 0l2.64 1.33C287.26 280.86 287.26 281 287.05 281.13zM291 279.15l-2.65 1.34a1 1 0 01-.74 0l-2.64-1.34c-.21-.1-.21-.27 0-.37l2.64-1.34a1 1 0 01.74 0l2.65 1.34C291.17 278.88 291.17 279.05 291 279.15zM294.88 277.17l-2.64 1.34a1 1 0 01-.74 0l-2.65-1.34c-.2-.1-.2-.27 0-.37l2.65-1.34a1 1 0 01.74 0l2.64 1.34C295.09 276.9 295.09 277.07 294.88 277.17zM298.8 275.2l-2.65 1.33a.87.87 0 01-.74 0l-2.64-1.33c-.21-.11-.21-.27 0-.38l2.64-1.33a.87.87 0 01.74 0l2.65 1.33C299 274.93 299 275.09 298.8 275.2zM302.71 273.22l-2.64 1.34a1 1 0 01-.74 0l-2.65-1.34c-.2-.1-.2-.27 0-.37l2.65-1.34a1 1 0 01.74 0l2.64 1.34C302.92 273 302.92 273.12 302.71 273.22zM306.63 271.24L304 272.58a1 1 0 01-.74 0l-2.64-1.34c-.21-.1-.21-.27 0-.37l2.64-1.34a1 1 0 01.74 0l2.65 1.34C306.83 271 306.83 271.14 306.63 271.24zM310.54 269.27l-2.64 1.33a1 1 0 01-.74 0l-2.65-1.33c-.2-.11-.2-.27 0-.38l2.65-1.33a.87.87 0 01.74 0l2.64 1.33C310.75 269 310.75 269.16 310.54 269.27zM314.46 267.29l-2.65 1.33a.87.87 0 01-.74 0l-2.64-1.33c-.21-.1-.21-.27 0-.37l2.64-1.34a1 1 0 01.74 0l2.65 1.34C314.66 267 314.66 267.19 314.46 267.29zM318.37 265.31l-2.64 1.34a1 1 0 01-.74 0l-2.65-1.34c-.2-.1-.2-.27 0-.37L315 263.6a1 1 0 01.74 0l2.64 1.34C318.58 265 318.58 265.21 318.37 265.31zM322.29 263.33l-2.65 1.34a1 1 0 01-.74 0l-2.64-1.34c-.21-.1-.21-.27 0-.37l2.64-1.33a.87.87 0 01.74 0l2.65 1.33C322.49 263.06 322.49 263.23 322.29 263.33zM326.2 261.36l-2.64 1.33a.87.87 0 01-.74 0l-2.65-1.33c-.2-.11-.2-.27 0-.38l2.65-1.33a1 1 0 01.74 0L326.2 261C326.41 261.09 326.41 261.25 326.2 261.36zM327.1 257.49l-1.16.58-1.85.94c-.21.1-.21.27 0 .37l2.64 1.34a1 1 0 00.74 0l1.85-.94 1.17-.59 4.76-2.4c.2-.1.2-.27 0-.37l-2.65-1.34a1 1 0 00-.74 0zM285.83 285.69L283.15 287a1 1 0 01-.76 0l-2.57-1.3c-.23-.12-.25-.29-.06-.39l2.69-1.35a.9.9 0 01.75 0l2.58 1.3C286 285.42 286 285.59 285.83 285.69zM289.72 283.72l-2.63 1.33a.92.92 0 01-.76 0l-2.63-1.33c-.2-.1-.2-.27 0-.38l2.63-1.32a.92.92 0 01.76 0l2.63 1.32C289.93 283.45 289.93 283.62 289.72 283.72zM293.63 281.75L291 283.08a1 1 0 01-.75 0l-2.63-1.33c-.21-.11-.21-.28 0-.38l2.63-1.33a.89.89 0 01.75 0l2.63 1.33C293.84 281.47 293.84 281.64 293.63 281.75zM299.13 279l-4.21 2.13a1 1 0 01-.76 0l-2.63-1.33c-.2-.1-.2-.27 0-.38l4.22-2.13a1 1 0 01.75 0l2.63 1.33C299.34 278.7 299.34 278.87 299.13 279zM323.5 266.67l-4.21 2.12a.89.89 0 01-.75 0l-2.63-1.32c-.21-.11-.21-.28 0-.39l4.21-2.12a.89.89 0 01.75 0l2.63 1.33C323.71 266.39 323.71 266.56 323.5 266.67zM297 277l2.63 1.32a.92.92 0 00.76 0L318 269.44c.2-.1.2-.27 0-.38l-2.63-1.33a1 1 0 00-.76 0L297 276.61C296.82 276.72 296.82 276.89 297 277zM327.4 264.7L324.77 266a1 1 0 01-.76 0l-2.63-1.33c-.2-.11-.2-.28 0-.38L324 263a.92.92 0 01.76 0l2.63 1.33C327.61 264.42 327.61 264.59 327.4 264.7zM331.31 262.72l-2.63 1.33a.89.89 0 01-.75 0l-2.63-1.33c-.21-.1-.21-.27 0-.38l2.63-1.33a1 1 0 01.75 0l2.63 1.33C331.52 262.45 331.52 262.62 331.31 262.72zM335.26 260.73l-2.69 1.36a1 1 0 01-.75 0l-2.58-1.3c-.22-.11-.25-.29-.05-.38l2.68-1.36a1 1 0 01.76 0l2.57 1.3C335.43 260.46 335.45 260.63 335.26 260.73zM339.17 258.75l-2.68 1.36a1 1 0 01-.76 0l-2.57-1.3c-.23-.11-.25-.28-.06-.38l2.69-1.35a.94.94 0 01.75 0l2.58 1.3C339.34 258.49 339.36 258.66 339.17 258.75zM261 276.23l2 1a.83.83 0 00.62 0l56.11-28.33c.17-.09.17-.23 0-.32l-2-1a.83.83 0 00-.62 0L261 275.92C260.87 276 260.87 276.15 261 276.23z"></path><g mask="url(#aZ)"><polygon points="262.13 268.43 254.6 271.59 238 262.79 246.45 259.11 262.13 268.43" style="mix-blend-mode:multiply" fill="url(#o)"></polygon></g><g mask="url(#ba)"><polygon points="338.93 294 319.7 303.62 292.34 286.14 327.42 268.02 338.17 285.43 338.93 294" style="mix-blend-mode:multiply" fill="url(#bb)"></polygon></g><g mask="url(#bc)"><polygon points="230.41 310.36 219.84 314.78 193.02 299.96 204.87 294.8 230.41 310.36" style="mix-blend-mode:multiply" fill="url(#bd)"></polygon></g><polygon fill="url(#be)" points="202.27 291.31 229.7 304.95 250.02 294.5 222.71 281.02 202.27 291.31"></polygon><path fill="url(#bf)" d="M229.81,304.65l-26.59-13.17c-1.26-.63-2.27.24-2.27,1.93a5,5,0,0,0,2.27,4.21l25.68,12.74S230,304.76,229.81,304.65Z"></path><path fill="url(#bg)" d="M249.34,297.83a5.1,5.1,0,0,1,.68-2.7c.1-.76-.09-.66-.32-.55l-19.24,9.62a5.1,5.1,0,0,0-2.36,4.25c0,1.7,1.06,2.55,2.36,1.89l19.24-9.62a.7.7,0,0,0,.32-.87A2.32,2.32,0,0,1,249.34,297.83Z"></path><path fill="#f9f9f9" d="M250,295.13l-19.48,9.75a3.9,3.9,0,0,0-1.81,3.26c0,1.3.81,2,1.81,1.45L250,299.85a3.1,3.1,0,0,1-.48-2.12A5.6,5.6,0,0,1,250,295.13Z"></path><g mask="url(#bh)"><path d="M250,295.13l-19.48,9.75a3.9,3.9,0,0,0-1.81,3.26c0,1.3.81,2,1.81,1.45L250,299.85a3.1,3.1,0,0,1-.48-2.12A5.6,5.6,0,0,1,250,295.13Z" style="mix-blend-mode:multiply" fill="url(#bi)" opacity=".5"></path></g><path fill="url(#bj)" d="M236,309.11l-1-1-1.84,2.4s.55-3.21-1.09-4.45l2.74-1.38C236,305.84,236,309.11,236,309.11Z"></path><path fill="url(#p)" d="M252.58,223.74a.8.8,0,0,1,.4-.48s3.39,17.31,4.64,25.56a14.11,14.11,0,0,0,7.22,9.56l5.49,2.75h2.22v1.59h0a.8.8,0,0,1-.44.72l-9.81,5a3.2,3.2,0,0,1-2.86,0l-7.26-3.63c-3.51-1.76-7.43-6.3-8-10C242.88,246.16,248.21,237.91,252.58,223.74Z"></path><path fill="url(#bk)" d="M254.36,221.9,265,216.51a.8.8,0,0,1,1.11,1c-4.3,13.28-9.77,21.5-8.52,29.75a14.11,14.11,0,0,0,7.22,9.55l7.27,3.64a.8.8,0,0,1,0,1.42l-9.81,5a3.2,3.2,0,0,1-2.86,0l-7.26-3.63a14.12,14.12,0,0,1-7.21-9.56c-1.29-8.56,4.63-17.07,9-31.24A.83.83,0,0,1,254.36,221.9Z"></path><path fill="url(#bl)" d="M298.94,149.15l-93.21,47.06a7.83,7.83,0,0,0-4.11,6.23v68.64c0,2.3,4.11,3.37,6.38,2.22l90.94-47.21c2.27-1.14,6.7-3.93,6.7-6.23V151.22C305.64,147.74,301.21,148,298.94,149.15Z"></path><path fill="url(#r)" d="M301.53,149.15l-93.21,47.06a7.83,7.83,0,0,0-4.11,6.23v68.79c0,2.29,1.84,3.22,4.11,2.07l93.21-47.06a7.83,7.83,0,0,0,4.11-6.23V151.22C305.64,148.93,303.8,148,301.53,149.15Z"></path><path fill="#739ec3" d="M208.55,269.89c0,.63.52.89,1.15.57a2.14,2.14,0,0,0,1.14-1.71c0-.63-.51-.89-1.14-.57A2.15,2.15,0,0,0,208.55,269.89Z"></path><path fill="#eefafa" d="M206.48,267.28a2,2,0,0,0,.9-.27L300.59,220a5.8,5.8,0,0,0,3-4.36v-63.8c0-.29-.62-1-1.08-.77l-93.21,47.06a5.81,5.81,0,0,0-3,4.36v64.37a1.06,1.06,0,0,0,.08.47Z"></path><path fill="#99c0d8" d="M206.37,267.51h-.14l-.06-.11a1.3,1.3,0,0,1-.1-.58V202.44a6.08,6.08,0,0,1,3.09-4.57l93.21-47.06a.92.92,0,0,1,.93-.05c.48.3.48,1.15.48,2.14v62.69a6.08,6.08,0,0,1-3.09,4.57l-93.21,47.06a2.23,2.23,0,0,1-1,.29Zm96.21-116.28-93.21,47.06a5.62,5.62,0,0,0-2.83,4.15v64.37a1.42,1.42,0,0,0,0,.23,2,2,0,0,0,.72-.24l93.21-47.06a5.62,5.62,0,0,0,2.83-4.15V152.9c0-.7,0-1.58-.26-1.75a.25.25,0,0,0-.12,0A.88.88,0,0,0,302.58,151.23Z"></path><path fill="#e6f7fa" d="M174.15,194.88l90.43-45.22a5.62,5.62,0,0,0,3-4.49V79.37c0-1.65-1.33-2.32-3-1.49L174.15,123.1a5.64,5.64,0,0,0-3,4.49v65.8C171.16,195,172.5,195.71,174.15,194.88Z"></path><path fill="url(#v)" d="M174.15,123.1l90.43-45.22c1.66-.83,3-.16,3,1.49V86.8L171.16,135v-7.43A5.64,5.64,0,0,1,174.15,123.1Z"></path><path fill="url(#bm)" d="M191.47,132.9c0,1,.82,1.43,1.84.92L222,119.48a3.47,3.47,0,0,0,1.84-2.77c0-1-.82-1.43-1.84-.92l-28.68,14.34A3.47,3.47,0,0,0,191.47,132.9Z"></path><path fill="url(#bn)" d="M178.88,148.37l32.32-16.16a1.71,1.71,0,0,0,.91-1.36c0-.51-.41-.71-.91-.46l-32.32,16.17a1.71,1.71,0,0,0-.91,1.36C178,148.42,178.38,148.62,178.88,148.37Z"></path><path fill="url(#bo)" d="M216.21,128.8c0,.5.41.7.91.45L227.58,124a1.69,1.69,0,0,0,.91-1.37c0-.5-.4-.7-.91-.45l-10.46,5.23A1.71,1.71,0,0,0,216.21,128.8Z"></path><path fill="url(#bp)" d="M201.52,139l-22.64,11.32a1.71,1.71,0,0,0-.91,1.37c0,.5.41.7.91.45l22.64-11.32a1.72,1.72,0,0,0,.91-1.37C202.43,138.9,202,138.7,201.52,139Z"></path><path fill="url(#bq)" d="M178.88,155.79l38.53-19.27a1.71,1.71,0,0,0,.91-1.36c0-.5-.41-.71-.91-.46L178.88,154a1.74,1.74,0,0,0-.91,1.37C178,155.84,178.38,156,178.88,155.79Z"></path><path fill="url(#br)" d="M178.88,163.48l81.27-40.64a1.7,1.7,0,0,0,.9-1.37c0-.5-.4-.7-.9-.45l-81.27,40.64A1.71,1.71,0,0,0,178,163C178,163.53,178.38,163.73,178.88,163.48Z"></path><path fill="url(#bs)" d="M205.07,144.58l-26.19,13.1A1.71,1.71,0,0,0,178,159c0,.5.41.7.91.45l26.19-13.1A1.71,1.71,0,0,0,206,145C206,144.53,205.57,144.33,205.07,144.58Z"></path><path fill="url(#bt)" d="M227.58,133.32l-16.66,8.33A1.71,1.71,0,0,0,210,143c0,.51.41.71.91.46l16.66-8.33a1.72,1.72,0,0,0,.91-1.37C228.49,133.27,228.09,133.07,227.58,133.32Z"></path><path fill="url(#bu)" d="M178.88,167.24l18.93-9.47a1.71,1.71,0,0,0,.91-1.36c0-.5-.41-.71-.91-.45l-18.93,9.46a1.71,1.71,0,0,0-.91,1.36C178,167.29,178.38,167.49,178.88,167.24Z"></path><path fill="url(#bv)" d="M203.8,154.78l10.56-5.29a1.69,1.69,0,0,0,.91-1.36c0-.5-.4-.7-.91-.45L203.8,153a1.71,1.71,0,0,0-.91,1.36C202.89,154.82,203.3,155,203.8,154.78Z"></path><path fill="url(#bw)" d="M220.19,146.58,234,139.69a1.71,1.71,0,0,0,.91-1.36c0-.5-.41-.71-.91-.45l-13.77,6.88a1.72,1.72,0,0,0-.91,1.37C219.28,146.63,219.68,146.83,220.19,146.58Z"></path><path fill="url(#bx)" d="M192.68,162.24l-13.8,6.9a1.71,1.71,0,0,0-.91,1.36c0,.5.41.71.91.46l13.8-6.9a1.74,1.74,0,0,0,.91-1.37C193.59,162.19,193.18,162,192.68,162.24Z"></path><path fill="url(#by)" d="M178.88,174.66,224.25,152a1.71,1.71,0,0,0,.91-1.36c0-.51-.41-.71-.91-.46l-45.37,22.69a1.71,1.71,0,0,0-.91,1.36C178,174.7,178.38,174.91,178.88,174.66Z"></path><path fill="url(#bz)" d="M211.91,160l-33,16.52a1.71,1.71,0,0,0-.91,1.36c0,.51.41.71.91.46l33-16.52a1.69,1.69,0,0,0,.91-1.37C212.82,160,212.42,159.77,211.91,160Z"></path><path fill="url(#bA)" d="M234.43,148.76l-16.67,8.33a1.73,1.73,0,0,0-.9,1.37c0,.5.4.7.9.45l16.67-8.33a1.71,1.71,0,0,0,.91-1.36C235.34,148.71,234.93,148.51,234.43,148.76Z"></path><path fill="url(#bB)" d="M178.88,182.06l7.1-3.55a1.71,1.71,0,0,0,.91-1.37c0-.5-.41-.7-.91-.45l-7.1,3.55a1.71,1.71,0,0,0-.91,1.37C178,182.11,178.38,182.31,178.88,182.06Z"></path><path fill="url(#bC)" d="M221.44,162.66l-42.56,21.28a1.73,1.73,0,0,0-.91,1.37c0,.5.41.7.91.45l42.56-21.28a1.72,1.72,0,0,0,.91-1.37C222.35,162.61,222,162.41,221.44,162.66Z"></path><path d="M263 147.08l-19.69 9.85c-.82.41-1.48.08-1.48-.74v-13.9a2.78 2.78 0 011.48-2.22L263 130.22c.82-.41 1.48-.08 1.48.74v13.9A2.78 2.78 0 01263 147.08zM263 109.78l-19.68 9.84c-.82.41-1.48.07-1.48-.74V105a2.76 2.76 0 011.48-2.21L263 92.92c.81-.4 1.47-.07 1.47.74v13.9A2.8 2.8 0 01263 109.78z" style="mix-blend-mode:overlay" fill="#eefafa"></path><path fill="url(#bD)" d="M247.39,104.86v8.58c0,.81.84.93,1.58.22l9.29-8.93c.86-.83.86-2.06,0-2l-9.29.35A2,2,0,0,0,247.39,104.86Z"></path><path fill="url(#bE)" d="M264.48,144.86V139.3l-3.52-.77a.66.66,0,0,0-.54.23l-4.91,4.91a.6.6,0,0,1-.58.21l-7.75-2.79c-.2-.08-.5.08-.7.36l-4.65,6.65v8.09c0,.82.66,1.15,1.48.74L263,147.08A2.78,2.78,0,0,0,264.48,144.86Z"></path><path fill="url(#bF)" d="M256.61,137.89a3.24,3.24,0,0,1-1.72,2.59c-.95.47-1.72.09-1.72-.86a3.26,3.26,0,0,1,1.72-2.59C255.84,136.56,256.61,136.94,256.61,137.89Z"></path><g mask="url(#bG)"><polygon points="319.26 242.95 303.21 250.44 292.25 244.93 308.81 238.02 319.26 242.95" style="mix-blend-mode:multiply" fill="url(#bH)"></polygon></g><path fill="#b3cfe8" d="M309.24,234.44c-4-2.11-4.24-4.58-4.23-5.28a1.83,1.83,0,0,1,.84-1.65,2.08,2.08,0,0,1,2.08.53,1.22,1.22,0,0,0,1.47-1.94,4.37,4.37,0,0,0-4.6-.78,4.19,4.19,0,0,0-2.22,3.79c-.05,2.82,2,5.62,5.52,7.48a1.16,1.16,0,0,0,.57.15,1.22,1.22,0,0,0,.57-2.3Z"></path><path fill="url(#q)" d="M309.24,234.44c-4-2.11-4.24-4.58-4.23-5.28a1.83,1.83,0,0,1,.84-1.65,2.08,2.08,0,0,1,2.08.53,1.22,1.22,0,0,0,1.47-1.94,4.37,4.37,0,0,0-4.6-.78,4.19,4.19,0,0,0-2.22,3.79c-.05,2.82,2,5.62,5.52,7.48a1.16,1.16,0,0,0,.57.15,1.22,1.22,0,0,0,.57-2.3Z"></path><path fill="url(#bI)" d="M323.27,239.62V223.77H308.21v15.85c0,1,.74,1.92,2.21,2.66a13.41,13.41,0,0,0,10.65,0C322.54,241.54,323.27,240.58,323.27,239.62Z"></path><ellipse cx="315.74" cy="223.77" fill="#fff" rx="7.53" ry="3.77"></ellipse><path fill="#f0f7fa" d="M320.31,221.43c2.53,1.2,2.53,3.15,0,4.35a12.05,12.05,0,0,1-9.14,0c-2.52-1.2-2.52-3.15,0-4.35A12.05,12.05,0,0,1,320.31,221.43Z"></path><path fill="url(#bJ)" d="M320.31,221.43c2.53,1.2,2.53,3.15,0,4.35a12.05,12.05,0,0,1-9.14,0c-2.52-1.2-2.52-3.15,0-4.35A12.05,12.05,0,0,1,320.31,221.43Z"></path><path fill="#d96c41" d="M311.17,225.3l-.45.24.45.24a12.05,12.05,0,0,0,9.14,0l.45-.24c-.14-.08-.28-.16-.45-.24A12.05,12.05,0,0,0,311.17,225.3Z"></path><path fill="#e68a4e" d="M310.92,225.65a12.06,12.06,0,0,1,5.38,0,8.81,8.81,0,0,1,2.07.74,9,9,0,0,0,1.94-.63l.45-.24c-.14-.08-.28-.16-.45-.24a12.05,12.05,0,0,0-9.14,0l-.45.24Z"></path><path d="M310.64,226.49a.1.1,0,0,0-.2,0c0,.44.28,8.41.28,8.49a.12.12,0,0,0,.11.1h0a.1.1,0,0,0,.1-.11C310.93,234.89,310.65,226.92,310.64,226.49Z" style="mix-blend-mode:multiply" fill="#d3daed" opacity=".5"></path><path fill="#ebe8e4" d="M311.39,225.72a.62.62,0,0,0-.59.06.8.8,0,0,0-.36.71v8.2a.09.09,0,0,0,.1.1h0a.09.09,0,0,0,.1-.1c0-.08,0-7.77,0-8.2a.63.63,0,0,1,.27-.53.72.72,0,0,1,.42-.08.49.49,0,0,1,.16,0A.2.2,0,0,0,311.39,225.72Z"></path><path d="M311.45,238.54l-1-.53a.25.25,0,0,1-.14-.13l-.24-.36a.27.27,0,0,1-.06-.17v-2.24A.12.12,0,0,1,310,235l.24-.12a.19.19,0,0,1,.14,0l1,.52a.37.37,0,0,1,.15.13l.24.36a.44.44,0,0,1,.06.17v2.25a.14.14,0,0,1-.06.11l-.24.12A.2.2,0,0,1,311.45,238.54Z" style="mix-blend-mode:multiply" fill="#66b7e8" opacity=".5"></path><path fill="url(#bK)" d="M311.06,238l-1-.52a.47.47,0,0,1-.15-.13l-.24-.36a.41.41,0,0,1-.05-.17v-2.25a.13.13,0,0,1,.05-.11l.24-.12a.16.16,0,0,1,.15,0l1,.52a.47.47,0,0,1,.15.13l.24.36a.41.41,0,0,1,.05.18v2.24a.13.13,0,0,1-.05.11l-.24.12A.16.16,0,0,1,311.06,238Z"></path><path fill="url(#bL)" d="M261.64,290.22c1.73-.5,5.73.36,8.28,1.63,3.18,1.59,4.31,3.67,4.55,5.81a.53.53,0,0,1-.21.55h0l-4.83,2.41L266.79,297l-10-3.81S257.81,291.32,261.64,290.22Z"></path><path fill="url(#bM)" d="M265.1,294.26c3.19,1.59,4.31,3.67,4.55,5.81.06.52-.33.75-.82.51l-11.36-5.68c-.57-.29-1-1.07-.78-1.5C257.66,291.41,261.89,292.65,265.1,294.26Z"></path><path d="M268,292.74a17.33,17.33,0,0,0-7.79-1.82l-.64.07.12-.06.13-.05.17-.08c1.73-.29,5.39.39,8.1,1.75s4.39,3.38,4.68,6a.65.65,0,0,1-.12.47l-.28.15h0a.67.67,0,0,0,.19-.6C272.29,296,270.8,294.13,268,292.74Z" style="mix-blend-mode:multiply" fill="url(#bN)" opacity=".5"></path><path fill="url(#bO)" d="M262.23,290.26h0a.92.92,0,0,1,.7.05,1.8,1.8,0,0,1,.78.66l-.69.34c-.37-.07-.73-.13-1.08-.17l-.47-.53Z"></path><path fill="url(#bP)" d="M261.25,291.09s0,0,0,0c0-.46.44-.65,1-.42a1.81,1.81,0,0,1,.79.68A9.82,9.82,0,0,0,261.25,291.09Z"></path><g mask="url(#bQ)"><polygon points="235.07 299.82 230.93 301.76 209.19 292.28 214.31 289.57 235.07 299.82" style="mix-blend-mode:multiply" fill="url(#bR)" opacity=".7"></polygon></g><path fill="#e6e7e8" d="M242.46,293.38l-17.88-7.7a3.79,3.79,0,0,0-3,0l-7.47,2.55c-.83.42-.63,2.17.19,2.58l17.76,8.88a4.08,4.08,0,0,0,3.25,0l7.14-3.58c.62-.33.6-.73.62-1.29S243.26,293.8,242.46,293.38Z"></path><path fill="url(#bS)" d="M242.46,293.38l-17.88-7.7a3.79,3.79,0,0,0-3,0l-7.47,2.55c-.83.42-.63,2.17.19,2.58l17.76,8.88a4.08,4.08,0,0,0,3.25,0l7.14-3.58c.62-.33.6-.73.62-1.29S243.26,293.8,242.46,293.38Z"></path><path fill="#eefafa" d="M242.46,293.38l-17.88-8.95a3.79,3.79,0,0,0-3,0l-7.28,3.64c-.82.41-.82,1.09,0,1.5l17.76,8.87a4.08,4.08,0,0,0,3.25,0l7.14-3.57C243.29,294.46,243.29,293.79,242.46,293.38Z"></path><path fill="#c5d9ed" d="M219.83,285.84h0a.15.15,0,0,0-.13,0l-1.15.57s0,0,0,.07h.15l1.14-.58S219.87,285.86,219.83,285.84Z"></path><g mask="url(#bT)"><path d="M242.33,293.67,224.9,285a3.21,3.21,0,0,0-2.53,0L215,288.63a.48.48,0,0,0-.32.43c0,.1,0,.28.32.42L232.14,298a3.69,3.69,0,0,0,1.59.33,3.62,3.62,0,0,0,1.58-.33l7-3.51a.45.45,0,0,0,0-.86Z" style="mix-blend-mode:multiply" fill="url(#bU)" opacity=".7"></path></g><g style="mix-blend-mode:screen" opacity=".3"><path fill="#eefafa" d="M215.49,289.72l0-.43L239.06,292l3.27,1.63a.45.45,0,0,1,0,.86l-4.26,2.13-11.34-1.32Z"></path><polygon fill="#eefafa" points="226.57 285.79 235.07 290.04 216.53 287.88 221.81 285.24 226.57 285.79"></polygon></g><path fill="url(#bV)" d="M219.46,292.61l-2.67-1.33a.37.37,0,0,0-.31,0l-.06,0a1.54,1.54,0,0,0,.31.28l2.78,1.34.11-.06a.07.07,0,0,0,.06-.07C219.67,292.74,219.59,292.68,219.46,292.61Z"></path><path fill="#dae9f5" d="M219.41,292.73l-2.83-1.42a.18.18,0,0,0-.22.06c0,.06,0,.09.08.14l2.83,1.41c.09.05.24.05.27,0S219.5,292.78,219.41,292.73Z"></path><path fill="#ffaf87" d="M316.88,252.43c.65.17,2.14.75,2.14.75s-.24-.16-1.53-.92c-.45-.26-3.46-.57-4.24-.94a2.13,2.13,0,0,1-.95-1.19,6.58,6.58,0,0,1,2.49.06,6.34,6.34,0,0,1-.66-.19,1.22,1.22,0,0,1-.66-1.11c.07-.22,2.53,0,4.16.34a1.64,1.64,0,0,1-.28-.12.94.94,0,0,1-.27-1.3,21.34,21.34,0,0,1,3.25,1s2.93,1.12,3.44,1.91,6,5.41,6,5.41,1.35,3.45-1.11,3.63c-.3,0-.86-.4-1.06-.26-1.75,1.2-6.27.15-7.41-.19a18.08,18.08,0,0,1-3-1.32c-1.33-.71-2.83-.9-2.51-1.68s2.5.19,4.86.41c-.4-1-.53-1.17-1.72-1.93-1.76-1.15-3.43-1.11-4.43-1.47-1.17-.43-1.21-1-1-1.19A26.14,26.14,0,0,1,316.88,252.43Z"></path><path fill="#56acd4" d="M353.29,271.33c-2.63,2.35-27.61-8.78-28.45-11-.95-2.54,2.42-5.18,4.18-4.8,4.16.89,16.88,3.51,16.88,3.51S355.92,269,353.29,271.33Z"></path><path fill="url(#bW)" d="M374.63,242.82c-2.31-4.36-9.42-4-17.61-2.07-2.75.65-6.08.8-9.55,2.3-6.89,3-13.78,6.8-15.06,8.25-3.47,3.95-1.73,15.5-.94,21.51.88,6.71,5.89,31.92,5.89,35.91,0,3.75,7.62,10.61,13.32,8,4.33-2,19.36-10.4,19.38-13.09C370.29,277.29,380.5,253.91,374.63,242.82Z"></path><path d="M331.25,253.4c0,.34,9.92,14.16,10.54,20.27.77,7.56,1.15,17.14,6,29.95,1.48,3.93,5,11.39,10.66,8.5,1.75-.9,5.28-3,8.83-5.32a112.16,112.16,0,0,1-16.6,9.91c-5.7,2.62-13.32-4.24-13.32-8,0-4-5-29.2-5.89-35.91C330.79,267.64,329.42,258.4,331.25,253.4Z" style="mix-blend-mode:multiply" fill="url(#s)" opacity=".3"></path><path fill="#ffaf87" d="M331 204.18c-1.15 10.49 1.37 27.08 4 29.12s8.69.56 8.69.56l2.34 9.87s-7.16 2.8 1.7 2c2.31-.21 6.64 1.88 14.24-1.18 3.84-1.55-2-4-2-4s-3.44-9.11-4.61-13.45c-.64-2.4-8.38-16.45-14.86-22C335.29 200.62 331 204.18 331 204.18zM304 272.85a15.26 15.26 0 011.79 4.32c.18 1.26 1.07 4.47-.29 5-2.91 1.2-5.68-1.21-8.67-4.52-.21-.24-1.27-.29-3.72-1.06-1.47-.47-2.06-.93-1.8-1.5.13-.29.65-.17.65-.17s-1.35-.63-1.06-1.2a.67.67 0 01.29-.29c.13-.07 4.56.07 4.56.07s-4.4-1.27-4.51-1.36-.51-.48-.39-.74 1.31-.25 1.31-.25l4.63.63 3.9 1.21a21.93 21.93 0 01-1.89-1.68 15.82 15.82 0 00-3.07-1.54s-.65-.51-.3-.84 2.54.29 2.54.29a13.68 13.68 0 012.44 1.08 22.44 22.44 0 013.59 2.52z"></path><path fill="url(#bX)" d="M341,252.07c-2.67-3.59-8.87-2.63-11.31,2.58s-7.13,27-7.23,27.46l0-.05s-12.38-3.73-16.42-5c-1.71-.54-5.27,1.83-4.54,4.47.64,2.33,24.43,15.69,27.23,13.56,0,0,0,0,0,0h0C331.54,293,347.52,260.88,341,252.07Z"></path><path d="M324.67,289.9l0,0h.05c1.63-1.22,9.54-12.73,14.63-23.91l1.13,3.76c-3.4,11.54-10.05,24.06-11.78,25.35h0s0,0,0,0c-2.8,2.13-26.59-11.23-27.23-13.56a2.79,2.79,0,0,1,.13-1.81C308.64,284.38,322.56,291.5,324.67,289.9Z" style="mix-blend-mode:multiply" fill="url(#bY)" opacity=".3"></path><g mask="url(#bZ)"><path d="M338,224.54c.3-1.44,1.08,1.69,3.4-1.46l6.22-3.51s3.89,5.3.51,10.78c-2.9,4.7-.14,12.72-2.82,15.53-4.91.05.71-2.15.71-2.15l-2.34-9.87s-6.18,1.42-8.69-.56a3.57,3.57,0,0,1-.88-1.23h0C336.46,232.82,337.69,226,338,224.54Z" style="mix-blend-mode:multiply" fill="url(#ca)" opacity=".3"></path></g><path fill="url(#cb)" d="M345.11,349.36l10.2-42.52a14.89,14.89,0,0,1,7.83-9.86l58.37-29.19a2,2,0,0,1,2,.06l3.36,1.68L398.62,323a14.88,14.88,0,0,1-6.73,6.78l-42.26,23.62-3.49-1.75A2.07,2.07,0,0,1,345.11,349.36Z"></path><path fill="url(#cc)" d="M351.64,353.51l43.81-21.91a14.93,14.93,0,0,0,6.73-6.78l25.71-52.46a2.1,2.1,0,0,0-2.82-2.79L366.7,298.76a14.91,14.91,0,0,0-7.83,9.87l-10.2,42.52A2.09,2.09,0,0,0,351.64,353.51Z"></path><path fill="url(#cd)" d="M369,358.9,383.6,322a3,3,0,1,1,5.6,2.22l-14.57,36.92A3,3,0,1,1,369,358.9Z"></path><path fill="url(#ce)" d="M355.71,228.8c6.23-6.27,13.36-17.77,9.75-23.48s-5.65-3.24-5.65-3.24-1.12-7.5-4.51-12-9-.22-9-.22-10.44-7.06-15.56-4.31c-8.58,4.6-3.14,26.25,5.13,26.37a7.85,7.85,0,0,0,1.08,4.87c.53.82,1.52-1,2.22-1.5,4.38-3,2.24,7.76,2.24,7.76s3.13,6.8,6.73,7.27S355.71,228.8,355.71,228.8Z"></path><g style="mix-blend-mode:multiply" opacity=".3"><path fill="#50648f" d="M347.26 189.75a5.66 5.66 0 00-.12 7.12c-2.35-1.61-2.88-4.93-1.83-7.59.6.37 1 .61 1 .61a10.81 10.81 0 012.07-1.15A6.88 6.88 0 00347.26 189.75zM327.47 189.29a27.92 27.92 0 00-.06 4.57c.57 6.35 4.76 11.77 9.28 16.27.3-1.16.59-2.32.89-3.48a36.41 36.41 0 00.81 5.48l1.23-3a12.24 12.24 0 00.91 4.63 5.35 5.35 0 01.89-3.41c.19 1 .39 2.08.58 3.12a17.84 17.84 0 013.68-9.06 90.44 90.44 0 00-1.44 10.61l1.2-1.84a11.72 11.72 0 00.6 6.46c1.44 3.12 5.06 4.9 8.5 4.76a13 13 0 006.69-2.37 47.84 47.84 0 01-5.52 6.74s-4 2-7.6 1.55-6.73-7.27-6.73-7.27 2.14-10.72-2.24-7.76c-.7.47-1.69 2.32-2.22 1.5a7.85 7.85 0 01-1.08-4.87C329 211.85 324.1 197 327.47 189.29zM361.4 201.58a5.82 5.82 0 00-1.3.64 5.59 5.59 0 00-1.89 6.71 4.41 4.41 0 01-1-5.4 10.33 10.33 0 012.44-2.59c.14.71.21 1.14.21 1.14A1.76 1.76 0 01361.4 201.58z"></path></g><path fill="#d7f3f7" d="M291,221.17l-68.37,34.19c-1.26.63-2.29.12-2.29-1.15V199a4.35,4.35,0,0,1,2.29-3.45L291,161.38c1.26-.64,2.29-.12,2.29,1.14v55.21A4.32,4.32,0,0,1,291,221.17Z"></path><path fill="url(#cf)" d="M291,161.38l-68.37,34.18a4.35,4.35,0,0,0-2.29,3.45v3l73-36.49v-3C293.29,161.26,292.26,160.74,291,161.38Z"></path><path fill="url(#cg)" d="M241.85,194.81l-8.79,4.4a.9.9,0,0,0-.46.74.29.29,0,0,0,.46.28l8.79-4.4a.88.88,0,0,0,.47-.74A.3.3,0,0,0,241.85,194.81Z"></path><path fill="url(#t)" d="M233.06,202.35c-.26.12-.46,0-.46-.28a.87.87,0,0,1,.46-.74l9.95-5c.26-.13.46,0,.46.28a.89.89,0,0,1-.46.74Z"></path><path fill="url(#ch)" d="M250.2,193.77c-.26.13-.46,0-.46-.28a.9.9,0,0,1,.46-.74l9.95-5a.29.29,0,0,1,.46.28.92.92,0,0,1-.46.74Z"></path><path fill="url(#u)" d="M233.06,204.46c-.26.13-.46,0-.46-.28a.9.9,0,0,1,.46-.74L253.87,193a.29.29,0,0,1,.46.28.89.89,0,0,1-.46.74Z"></path><path fill="url(#ci)" d="M233.06,206.58c-.26.12-.46,0-.46-.29a.9.9,0,0,1,.46-.74l2.52-1.26c.26-.13.47,0,.47.28a.9.9,0,0,1-.47.74Z"></path><path fill="url(#cj)" d="M249.53,191l-5.76,2.88a.9.9,0,0,0-.46.75c0,.28.2.4.46.28l5.76-2.89a.89.89,0,0,0,.46-.74A.29.29,0,0,0,249.53,191Z"></path><path fill="url(#ck)" d="M245,196.38a.29.29,0,0,1-.46-.28.92.92,0,0,1,.46-.74l3.34-1.67a.3.3,0,0,1,.46.29.92.92,0,0,1-.46.74Z"></path><path fill="url(#cl)" d="M233.06,208.69a.29.29,0,0,1-.46-.28.87.87,0,0,1,.46-.74l4.87-2.44c.26-.13.46,0,.46.28a.89.89,0,0,1-.46.74Z"></path><path fill="url(#cm)" d="M239.83,205.3a.29.29,0,0,1-.46-.28.9.9,0,0,1,.46-.74L252.32,198a.29.29,0,0,1,.45.29.91.91,0,0,1-.45.74Z"></path><path fill="url(#cn)" d="M233.06,210.8c-.26.13-.46,0-.46-.28a.9.9,0,0,1,.46-.74l11.77-5.89a.29.29,0,0,1,.46.28.94.94,0,0,1-.46.75Z"></path><path fill="url(#co)" d="M233.06,212.92c-.26.12-.46,0-.46-.29a.9.9,0,0,1,.46-.74l6.83-3.41c.26-.13.46,0,.46.28a.89.89,0,0,1-.46.74Z"></path><path fill="url(#cp)" d="M241.88,208.5c-.26.13-.46,0-.46-.28a.9.9,0,0,1,.46-.74l6.83-3.41c.25-.13.45,0,.45.28a.9.9,0,0,1-.45.74Z"></path><path fill="url(#cq)" d="M254.16,198.13c-.25.13-.45,0-.45-.28a.91.91,0,0,1,.45-.74L261,193.7c.26-.13.46,0,.46.28a.9.9,0,0,1-.46.74Z"></path><path fill="url(#cr)" d="M235.26,213.93c-.26.13-.46,0-.46-.28a.89.89,0,0,1,.46-.74l21.11-10.56a.29.29,0,0,1,.46.28.92.92,0,0,1-.46.74Z"></path><path fill="url(#cs)" d="M255.78,205.78c-.26.13-.47,0-.47-.28a.9.9,0,0,1,.47-.74l2.63-1.32a.29.29,0,0,1,.46.28.9.9,0,0,1-.46.75Z"></path><path fill="url(#ct)" d="M260.34,203.5a.29.29,0,0,1-.46-.28.89.89,0,0,1,.46-.74l2.64-1.32a.29.29,0,0,1,.46.28.91.91,0,0,1-.46.74Z"></path><path fill="url(#cu)" d="M235.26,224.5a.29.29,0,0,1-.46-.28.89.89,0,0,1,.46-.74l3.69-1.85a.29.29,0,0,1,.46.28.91.91,0,0,1-.46.74Z"></path><path fill="url(#cv)" d="M235.26,216.05c-.26.12-.46,0-.46-.29a.9.9,0,0,1,.46-.74l18.61-9.31a.29.29,0,0,1,.46.28.89.89,0,0,1-.46.74Z"></path><path fill="url(#cw)" d="M235.26,218.16a.29.29,0,0,1-.46-.28.9.9,0,0,1,.46-.75l18.81-9.41c.26-.12.46,0,.46.29a.9.9,0,0,1-.46.74Z"></path><path fill="url(#cx)" d="M235.26,220.27c-.26.13-.46,0-.46-.28a.89.89,0,0,1,.46-.74l6.39-3.2c.26-.13.46,0,.46.28a.89.89,0,0,1-.46.74Z"></path><path fill="url(#cy)" d="M243.48,216.16c-.26.13-.47,0-.47-.28a.9.9,0,0,1,.47-.74l14.91-7.46c.26-.13.46,0,.46.28a.89.89,0,0,1-.46.74Z"></path><path fill="url(#cz)" d="M235.26,222.38c-.26.13-.46,0-.46-.28a.9.9,0,0,1,.46-.74l7.29-3.65c.26-.12.46,0,.46.28a.9.9,0,0,1-.46.75Z"></path><path fill="url(#cA)" d="M244.35,217.84c-.26.12-.46,0-.46-.28a.9.9,0,0,1,.46-.75l7.3-3.65a.29.29,0,0,1,.46.28.93.93,0,0,1-.46.75Z"></path><path fill="url(#cB)" d="M240.81,221.72c-.26.13-.46,0-.46-.28a.89.89,0,0,1,.46-.74l23.81-11.91a.29.29,0,0,1,.46.28.87.87,0,0,1-.46.74Z"></path><path fill="url(#cC)" d="M235.26,226.61c-.26.13-.46,0-.46-.28a.9.9,0,0,1,.46-.74l5.27-2.64a.3.3,0,0,1,.46.29.92.92,0,0,1-.46.74Z"></path><path fill="url(#cD)" d="M230.76,207.25l-4.35,2.17v-7.64a.54.54,0,0,1,.29-.43c.16-.08.29,0,.29.14v7.07l3.77-1.89c.16-.08.29,0,.29.14A.55.55,0,0,1,230.76,207.25Z"></path><path fill="url(#cE)" d="M232,227.77l-3.56,1.78v-5.08a.54.54,0,0,1,.29-.43c.16-.08.29,0,.29.14v4.5l3-1.49c.16-.08.29,0,.29.14A.55.55,0,0,1,232,227.77Z"></path><path fill="url(#cF)" d="M232,221.7l-3.56,1.78v-8.77a.54.54,0,0,1,.29-.43c.16-.08.29,0,.29.14v8.2l3-1.49c.16-.08.29,0,.29.14A.54.54,0,0,1,232,221.7Z"></path><path fill="url(#cG)" d="M240.92,228.42a.31.31,0,0,1-.49-.3,1,1,0,0,1,.49-.79l9.88-4.94a.31.31,0,0,1,.48.3,1,1,0,0,1-.48.79Z"></path><path fill="url(#cH)" d="M240.92,230.79a.31.31,0,0,1-.49-.3,1,1,0,0,1,.49-.78l11.17-5.59a.31.31,0,0,1,.49.3,1,1,0,0,1-.49.78Z"></path><path fill="url(#cI)" d="M259.93,221.28a.31.31,0,0,1-.49-.3,1,1,0,0,1,.49-.78l11.17-5.59a.31.31,0,0,1,.49.3.92.92,0,0,1-.49.78Z"></path><path fill="url(#cJ)" d="M240.92,233.17a.32.32,0,0,1-.49-.31,1,1,0,0,1,.49-.78l23.37-11.69a.31.31,0,0,1,.49.3,1,1,0,0,1-.49.79Z"></path><path fill="url(#cK)" d="M261.08,218.33c-.26.14-.48,0-.48-.3a1,1,0,0,1,.48-.78l12-6a.31.31,0,0,1,.49.3,1,1,0,0,1-.49.78Z"></path><path fill="url(#cL)" d="M240.92,235.54a.31.31,0,0,1-.49-.3,1,1,0,0,1,.49-.79l2.84-1.42a.31.31,0,0,1,.48.3,1,1,0,0,1-.48.79Z"></path><path fill="url(#cM)" d="M252.77,222.49a.31.31,0,0,1-.48-.3,1,1,0,0,1,.48-.79l6.48-3.23c.26-.14.48,0,.48.3a1,1,0,0,1-.48.78Z"></path><path fill="url(#cN)" d="M254.18,224.16a.31.31,0,0,1-.48-.3,1,1,0,0,1,.48-.79l3.74-1.87a.31.31,0,0,1,.49.3,1,1,0,0,1-.49.79Z"></path><path fill="url(#cO)" d="M240.92,237.91a.31.31,0,0,1-.49-.3,1,1,0,0,1,.49-.78l5.47-2.74a.31.31,0,0,1,.49.3,1,1,0,0,1-.49.79Z"></path><path fill="url(#cP)" d="M248.29,234.23a.31.31,0,0,1-.49-.3,1,1,0,0,1,.49-.79l14-7a.31.31,0,0,1,.48.3,1,1,0,0,1-.48.79Z"></path><path fill="url(#cQ)" d="M240.92,240.29a.31.31,0,0,1-.49-.3,1,1,0,0,1,.49-.79l13.22-6.61a.31.31,0,0,1,.49.3,1,1,0,0,1-.49.78Z"></path><path fill="url(#cR)" d="M240.92,242.66a.31.31,0,0,1-.49-.3,1,1,0,0,1,.49-.78l7.67-3.84a.31.31,0,0,1,.48.3.94.94,0,0,1-.48.78Z"></path><path fill="url(#cS)" d="M250.45,237.89c-.26.14-.48,0-.48-.3a1,1,0,0,1,.48-.78l7.67-3.84c.28-.13.49,0,.49.3a.94.94,0,0,1-.49.79Z"></path><path fill="url(#cT)" d="M271.85,221.36l-7.66,3.83a1,1,0,0,0-.49.79.31.31,0,0,0,.49.3l7.66-3.84a.92.92,0,0,0,.49-.78C272.34,221.35,272.13,221.22,271.85,221.36Z"></path><path fill="url(#cU)" d="M238.5,243.9l-4.85,2.42V230.09a.54.54,0,0,1,.29-.43c.16-.08.29,0,.29.14v15.66l4.27-2.14c.16-.08.29,0,.29.15A.54.54,0,0,1,238.5,243.9Z"></path><path fill="url(#w)" d="M144.55,127.51c0-10.74,8.71-23.8,19.45-29.17,6-3,11.65-2.91,15.21-.45l5.54,4.37-2.89-1.1a14.3,14.3,0,0,1,1.58,6.9c0,10.74-8.71,23.8-19.44,29.17-4.51,2.25-8.66,2.79-11.95,1.86l1.51,2L149,137.68h0A12.43,12.43,0,0,1,144.55,127.51Z"></path><ellipse cx="169.03" cy="121.57" fill="url(#cV)" rx="24.9" ry="15.18" transform="rotate(-52.02 169.025 121.576)"></ellipse><polygon fill="#f9fafa" points="164.23 121.75 163.79 116.61 177.68 109.66 177.96 105.96 160.09 114.9 161.13 126.86 173.65 120.61 173.21 126.36 169.1 130 165 130.46 164.71 127.42 161.34 129.11 161.82 134.62 169.1 133.8 176.4 127.32 177.33 115.21 164.23 121.75"></polygon><path fill="url(#x)" d="M349.74,96c0-9,7.32-20,16.35-24.54,5-2.51,9.8-2.45,12.8-.38l4.65,3.68-2.43-.92a11.87,11.87,0,0,1,1.33,5.8c0,9-7.32,20-16.35,24.53-3.79,1.9-7.28,2.35-10,1.57l1.27,1.68-3.81-2.87h0A10.41,10.41,0,0,1,349.74,96Z"></path><ellipse cx="370.32" cy="91.01" fill="url(#cW)" rx="20.95" ry="12.77" transform="rotate(-52.02 370.319 91.014)"></ellipse><path fill="#f9fafa" d="M365.3 98a2.75 2.75 0 01-1.74 2.77 5.49 5.49 0 01-1.63.54l-.19 3.13a9.13 9.13 0 002.18-.78 7.79 7.79 0 004.72-7.25V81.7l-3.34 1.67zM376.06 86c-1.9-.76-2.37-1.32-2.37-2.29v-.41a2.06 2.06 0 011.24-2c.86-.43 1.33-.22 1.33 1v.83L379.49 81v-.45c0-2.89-1.77-3.64-4.59-2.23A7.53 7.53 0 00370.35 85v.47c0 2.12.91 3.27 3.53 4.33 1.91.76 2.4 1.31 2.4 2.39v.61a2.38 2.38 0 01-1.4 2.3c-.91.46-1.44.22-1.44-1V92.6l-3.23 2.25V96c0 2.9 1.91 3.58 4.72 2.17s4.69-3.89 4.69-6.79v-.91C379.62 88.16 378.69 87 376.06 86z"></path><path fill="url(#y)" d="M382.19,192.72c0-10.36,8.39-22.95,18.75-28.12,5.76-2.88,11.23-2.81,14.67-.44l5.33,4.22-2.78-1.06a13.68,13.68,0,0,1,1.52,6.65c0,10.35-8.39,22.94-18.74,28.12-4.35,2.17-8.34,2.69-11.52,1.8l1.45,1.92-4.37-3.29h0A12,12,0,0,1,382.19,192.72Z"></path><path fill="url(#cX)" d="M387,196.37c0,10.35,8.39,14.55,18.75,9.37s18.74-17.77,18.74-28.12-8.39-14.55-18.74-9.37S387,186,387,196.37Z"></path><path fill="#f9fafa" d="M398.56,183.56a5.48,5.48,0,0,0-3.23,4.89v7.16c0,2.06,1.2,2.67,3.23,1.66a5.56,5.56,0,0,0,3.3-4.93v-1.5l-2.23.79v1.62a1.85,1.85,0,0,1-1,1.87c-.65.33-1,.12-1-.68v-7.12a1.74,1.74,0,0,1,1-1.68c.63-.31,1-.14,1,.87v1.24l2.23-1.65v-.91C401.86,183.13,400.62,182.53,398.56,183.56Z"></path><polygon fill="#f9fafa" points="407.36 182.07 405.51 183 405.51 186.04 402.58 187.51 402.58 189.3 405.51 187.83 405.51 190.88 407.36 189.96 407.36 186.91 410.29 185.44 410.29 183.65 407.36 185.12 407.36 182.07"></polygon><polygon fill="#f9fafa" points="415.55 181.03 415.55 177.98 413.7 178.9 413.7 181.95 410.77 183.41 410.77 185.2 413.7 183.74 413.7 186.78 415.55 185.86 415.55 182.81 418.48 181.35 418.48 179.56 415.55 181.03"></polygon></g></svg>